<?xml version="1.0" encoding="UTF-8"?>
<svg xmlns="http://www.w3.org/2000/svg" xmlns:xlink="http://www.w3.org/1999/xlink" width="302.4pt" height="329.1pt" viewBox="0 0 302.4 329.1" version="1.1">
<defs>
<clipPath id="clip1">
  <path d="M 215 265 L 257 265 L 257 329.101563 L 215 329.101563 Z M 215 265 "/>
</clipPath>
</defs>
<g id="surface1">
<path style=" stroke:none;fill-rule:evenodd;fill:rgb(45.872498%,78.90625%,6.665039%);fill-opacity:1;" d="M 94.917969 48.089844 C 94.863281 56.039063 95.796875 67.628906 92.699219 74.234375 C 90.917969 78.027344 88.367188 79.035156 83.277344 77.632813 C 79.894531 76.703125 76.472656 75.015625 73.527344 73.542969 C 67.265625 70.410156 61.53125 67.039063 55.242188 63.917969 C 52.089844 62.355469 48.894531 60.839844 45.300781 59.789063 C 43.6875 59.316406 40.984375 58.714844 39.296875 59.207031 C 36.863281 59.921875 36.996094 61.308594 35.574219 62.351563 C 35.464844 63.328125 34.746094 64.5 34.40625 65.65625 C 32.289063 72.914063 32.796875 86.957031 34.863281 93.027344 C 35.367188 93.421875 36.851563 96.769531 37.527344 97.949219 C 38.496094 99.648438 39.425781 101.066406 40.535156 102.65625 C 43.539063 106.953125 49.320313 113.46875 53.210938 116.980469 C 57.472656 120.820313 58.589844 121.964844 63.582031 125.894531 C 69.71875 130.726563 85.039063 141.296875 94 141.609375 C 99.316406 141.796875 96.113281 134.015625 99.839844 133.007813 C 99.96875 132.972656 100.808594 132.925781 100.953125 132.90625 C 101.773438 134.734375 101.925781 133.878906 103.03125 137.726563 C 106.699219 150.46875 109.609375 161.71875 117.90625 172.53125 C 125.507813 182.4375 136.742188 190.484375 154.804688 192.410156 C 167.503906 193.769531 179.441406 192.109375 190.308594 186.308594 C 199.292969 181.511719 206.195313 172.859375 210.394531 163.742188 C 211.925781 160.421875 213.1875 157.058594 214.285156 153.34375 C 214.941406 151.125 216.554688 143.566406 217.679688 142.460938 C 222.273438 142.695313 214.574219 153.007813 233.085938 142.417969 C 235.832031 140.847656 238.199219 139.203125 240.671875 137.523438 C 241.933594 136.667969 243.222656 135.71875 244.347656 134.847656 C 245.558594 133.90625 246.804688 133.03125 247.925781 131.933594 C 248.902344 131.222656 250.238281 130.101563 251.140625 129.164063 C 253.363281 126.855469 254.617188 126.050781 257.496094 122.820313 C 257.777344 122.503906 257.921875 122.25 258.203125 121.929688 C 259.367188 120.605469 259.71875 119.75 260.566406 119.472656 C 261.574219 118.480469 264.191406 113.039063 265.011719 111.273438 C 268.617188 103.527344 271.144531 95.007813 271.789063 86.289063 C 271.933594 84.328125 271.65625 82.089844 272 80.226563 C 271.371094 79.304688 271.511719 73.121094 262.375 76.421875 C 254.660156 79.210938 235.753906 90.867188 231.078125 90.234375 C 228.839844 86.882813 231.273438 71.210938 231.898438 65.449219 C 232.183594 62.824219 232.320313 59.628906 232.804688 57.117188 C 232.773438 56.753906 232.769531 56.308594 232.785156 55.800781 C 232.859375 53.125 233.429688 48.792969 233.566406 46.503906 C 234.03125 38.742188 235.386719 22.707031 226.757813 18.8125 C 220.25 18.386719 215.710938 21.632813 211.304688 24.027344 C 200.824219 29.726563 189.101563 30.839844 176.984375 29.78125 C 173.832031 29.503906 162.160156 27.722656 160.488281 26.332031 C 157.25 25.609375 152.039063 22.792969 149.425781 21.269531 C 139.664063 15.578125 132.625 7.445313 123.925781 3.210938 C 123.175781 2.847656 121.921875 2.449219 121.324219 2.046875 C 114.566406 -0.0507813 109.097656 0.238281 104.34375 5.582031 C 96.5625 14.316406 95.140625 37.21875 94.917969 48.089844 Z M 94.917969 48.089844 "/>
<path style=" stroke:none;fill-rule:evenodd;fill:rgb(84.764099%,52.146912%,7.446289%);fill-opacity:1;" d="M 161.054688 234.832031 C 162.5625 226.058594 156.046875 224.304688 148.238281 224.535156 C 143.566406 224.933594 140.429688 226.75 138.625 229.464844 C 134.144531 236.207031 140 243.214844 152.410156 240.519531 C 154.367188 240.09375 156.199219 239.449219 157.707031 238.554688 C 158.648438 237.992188 159.039063 237.59375 159.695313 236.910156 C 160.355469 236.21875 160.816406 235.179688 161.054688 234.832031 Z M 161.054688 234.832031 "/>
<path style=" stroke:none;fill-rule:evenodd;fill:rgb(84.764099%,52.146912%,7.446289%);fill-opacity:1;" d="M 181.910156 221.714844 C 181.609375 226.402344 183.875 227.523438 188.398438 227.515625 C 191.992188 227.507813 196.011719 226.738281 198.335938 224.949219 C 200.914063 222.96875 202.015625 220.128906 200.855469 215.976563 C 199.835938 212.308594 197.554688 210.675781 193.171875 210.894531 C 189.488281 211.628906 187.796875 212.613281 185.800781 214.6875 C 184.851563 215.675781 184.164063 216.65625 183.421875 217.984375 C 182.742188 219.195313 182.320313 220.738281 181.910156 221.714844 Z M 181.910156 221.714844 "/>
<path style=" stroke:none;fill-rule:evenodd;fill:rgb(24.31488%,24.31488%,24.31488%);fill-opacity:1;" d="M 130.546875 60.113281 C 130.566406 60.164063 130.609375 60.183594 130.621094 60.257813 C 130.632813 60.335938 130.679688 60.375 130.695313 60.40625 C 131.347656 61.5 131.878906 61.988281 132.019531 63.730469 C 132.152344 65.402344 131.632813 66.800781 130.785156 67.84375 C 128.816406 70.285156 126.601563 70.207031 123.726563 68.648438 C 123.339844 69.253906 123.257813 69.96875 123.175781 70.691406 C 123.085938 71.449219 123.046875 72.246094 123.0625 73.046875 C 123.09375 74.539063 123.3125 75.976563 123.734375 77.332031 C 126.773438 87.109375 136.800781 88.480469 141.8125 82.042969 C 147.183594 75.148438 145.347656 64.339844 138.800781 60.695313 C 136.667969 59.507813 133.132813 58.667969 130.546875 60.113281 Z M 130.546875 60.113281 "/>
<path style=" stroke:none;fill-rule:evenodd;fill:rgb(24.31488%,24.31488%,24.31488%);fill-opacity:1;" d="M 199.335938 65.328125 C 202.980469 70.242188 199.757813 73.960938 197.21875 74.378906 C 195.207031 74.710938 194.695313 73.925781 193.492188 73.359375 C 192.144531 78.429688 193.148438 83.695313 196.816406 87.3125 C 201.195313 91.636719 206.789063 88.457031 209.125 85.128906 C 211.792969 81.339844 212.917969 75.265625 210.753906 70.210938 C 207.957031 63.6875 201.605469 63.214844 199.335938 65.328125 Z M 199.335938 65.328125 "/>
<path style=" stroke:none;fill-rule:evenodd;fill:rgb(99.609375%,100%,99.609375%);fill-opacity:1;" d="M 132.019531 63.730469 C 131.878906 61.988281 131.347656 61.5 130.695313 60.40625 C 130.679688 60.375 130.632813 60.335938 130.621094 60.257813 C 130.609375 60.183594 130.566406 60.164063 130.546875 60.113281 C 133.132813 58.667969 136.667969 59.507813 138.800781 60.695313 C 145.347656 64.339844 147.183594 75.148438 141.8125 82.042969 C 136.800781 88.480469 126.773438 87.109375 123.734375 77.332031 C 123.3125 75.976563 123.09375 74.539063 123.0625 73.046875 C 123.046875 72.246094 123.085938 71.449219 123.175781 70.691406 C 123.257813 69.96875 123.339844 69.253906 123.726563 68.648438 C 126.601563 70.207031 128.816406 70.285156 130.785156 67.84375 C 131.632813 66.800781 132.152344 65.402344 132.019531 63.730469 Z M 131.808594 48.628906 C 121.027344 50.4375 113.433594 62.039063 114.554688 75.128906 C 115.546875 86.753906 124.164063 98.738281 137.070313 96.757813 C 147.792969 95.113281 155.40625 83.113281 154.292969 70.125 C 153.316406 58.765625 144.597656 46.480469 131.808594 48.628906 Z M 131.808594 48.628906 "/>
<path style=" stroke:none;fill-rule:evenodd;fill:rgb(99.609375%,100%,99.609375%);fill-opacity:1;" d="M 210.753906 70.210938 C 212.917969 75.265625 211.792969 81.339844 209.125 85.128906 C 206.789063 88.457031 201.195313 91.636719 196.816406 87.3125 C 193.148438 83.695313 192.144531 78.429688 193.492188 73.359375 C 194.695313 73.925781 195.207031 74.710938 197.21875 74.378906 C 199.757813 73.960938 202.980469 70.242188 199.335938 65.328125 C 201.605469 63.214844 207.957031 63.6875 210.753906 70.210938 Z M 201.945313 55.433594 C 192.488281 56.613281 186.023438 66.671875 186.007813 77.574219 C 185.992188 88.121094 192.78125 99.410156 203.777344 97.957031 C 213.023438 96.734375 219.4375 86.40625 219.433594 75.761719 C 219.429688 65.253906 212.574219 54.105469 201.945313 55.433594 Z M 201.945313 55.433594 "/>
<path style=" stroke:none;fill-rule:evenodd;fill:rgb(44.309998%,70.117188%,7.835388%);fill-opacity:1;" d="M 208.777344 176.917969 C 209.332031 175.167969 210.175781 173.625 210.882813 171.941406 C 211.554688 170.34375 212.183594 168.800781 212.859375 167.113281 C 215.359375 160.882813 214.183594 162.628906 219.023438 159.664063 C 224.871094 156.078125 230.085938 152.324219 234.976563 148.390625 C 237.894531 146.042969 243.09375 141.445313 245.722656 138.722656 C 249.152344 135.171875 259.160156 123.441406 260.566406 119.472656 C 259.71875 119.75 259.367188 120.605469 258.203125 121.929688 C 257.921875 122.25 257.777344 122.503906 257.496094 122.820313 C 254.617188 126.050781 253.363281 126.855469 251.140625 129.164063 C 250.238281 130.101563 248.902344 131.222656 247.925781 131.933594 C 246.804688 133.03125 245.558594 133.90625 244.34375 134.847656 C 243.222656 135.71875 241.933594 136.667969 240.671875 137.523438 C 238.199219 139.203125 235.832031 140.847656 233.085938 142.417969 C 214.574219 153.007813 222.273438 142.695313 217.679688 142.460938 C 216.554688 143.566406 214.941406 151.125 214.285156 153.34375 C 213.1875 157.058594 211.925781 160.421875 210.394531 163.742188 C 206.195313 172.859375 199.292969 181.511719 190.308594 186.308594 C 179.441406 192.109375 167.503906 193.769531 154.804688 192.414063 C 136.742188 190.484375 125.507813 182.4375 117.90625 172.53125 C 109.609375 161.71875 106.699219 150.46875 103.03125 137.726563 C 101.925781 133.878906 101.773438 134.734375 100.953125 132.90625 C 95.503906 132.632813 99.769531 141.8125 94 141.609375 C 85.039063 141.296875 69.71875 130.726563 63.578125 125.894531 C 58.589844 121.964844 57.472656 120.820313 53.210938 116.980469 C 49.320313 113.472656 43.539063 106.953125 40.535156 102.65625 C 39.425781 101.066406 38.496094 99.648438 37.527344 97.949219 C 36.851563 96.769531 35.367188 93.421875 34.863281 93.027344 C 36.835938 103.625 43.792969 114.984375 48.835938 121.578125 C 57.773438 133.261719 70.078125 143.402344 82.320313 151.84375 C 86.3125 154.597656 91.042969 157.730469 94.566406 160.703125 C 97.089844 162.832031 96.972656 164.171875 97.992188 167.941406 C 102.851563 185.898438 111.527344 202.226563 128.792969 211.09375 C 138.296875 215.972656 151.949219 218.566406 164.203125 216.71875 C 176.726563 214.828125 185.808594 208.304688 191.964844 202.027344 C 195.316406 198.609375 198.402344 194.78125 201.316406 190.277344 C 202.6875 188.152344 204.042969 186.015625 205.308594 183.609375 C 205.800781 182.667969 208.351563 177.183594 208.777344 176.917969 Z M 208.777344 176.917969 "/>
<path style=" stroke:none;fill-rule:evenodd;fill:rgb(44.309998%,70.117188%,7.835388%);fill-opacity:1;" d="M 173.960938 116.191406 C 163.363281 120.382813 160.402344 114.191406 159.851563 104.351563 C 159.421875 105.132813 159.484375 106.089844 159.453125 107.058594 C 159.257813 112.609375 158.488281 128.421875 166.578125 127.207031 C 169.914063 126.707031 171.789063 124.152344 172.832031 121.203125 C 173.398438 119.609375 173.433594 117.636719 173.960938 116.191406 Z M 173.960938 116.191406 "/>
<path style=" stroke:none;fill-rule:evenodd;fill:rgb(55.271912%,87.5%,1.177979%);fill-opacity:1;" d="M 201.945313 55.433594 C 212.574219 54.105469 219.429688 65.253906 219.433594 75.761719 C 219.433594 86.40625 213.023438 96.734375 203.777344 97.957031 C 192.78125 99.410156 185.992188 88.121094 186.007813 77.574219 C 186.023438 66.671875 192.488281 56.613281 201.945313 55.433594 Z M 131.808594 48.628906 C 144.597656 46.480469 153.316406 58.765625 154.292969 70.125 C 155.40625 83.113281 147.792969 95.113281 137.070313 96.757813 C 124.164063 98.738281 115.546875 86.753906 114.554688 75.128906 C 113.433594 62.039063 121.027344 50.4375 131.808594 48.628906 Z M 159.871094 98.726563 C 159.9375 93.921875 161.207031 91.882813 163.773438 89.699219 C 166.050781 87.769531 169.554688 86.464844 173.425781 86.316406 C 181.652344 86 184.566406 92.972656 186.261719 99.335938 C 187.144531 99.636719 187.226563 100.03125 187.957031 100.699219 C 192.171875 104.535156 197.507813 106.941406 203.617188 106.722656 C 219.21875 106.164063 224.695313 93.179688 226.183594 79.789063 C 226.625 75.820313 226.710938 71.875 226.664063 67.824219 C 226.636719 65.773438 225.808594 57.113281 226.109375 56.144531 C 225.558594 55.234375 225.601563 53.769531 225.285156 52.277344 C 224.21875 47.230469 222.175781 39.851563 216.078125 39.265625 C 211.421875 38.820313 210.996094 40.964844 208.613281 40.144531 C 208.554688 38.25 211.019531 38.652344 211.222656 37.074219 C 205.875 36.027344 198.09375 44.046875 195.4375 42.867188 C 194.59375 40.847656 198.097656 40.777344 198.324219 39.324219 C 190.628906 38.117188 186.101563 49.808594 166.828125 40.847656 C 165.132813 40.058594 159.242188 36.398438 157.84375 36.585938 C 157.808594 38.894531 160.90625 39.707031 160.207031 42.808594 C 159.554688 42.585938 158.261719 41.246094 157.660156 40.707031 C 152.292969 35.910156 144.203125 30.070313 137.046875 28.296875 C 136.152344 28.019531 136.304688 27.953125 135.417969 28.242188 C 135.296875 30.527344 138.035156 30.683594 137.734375 32.621094 C 135.738281 33.535156 134.238281 30.8125 130.101563 29.238281 C 127.296875 28.175781 123.105469 27.667969 119.910156 28.394531 C 113.953125 29.753906 110.679688 34.703125 108.339844 39.964844 C 104.070313 49.566406 102.210938 69.09375 104.113281 80.6875 C 108.277344 106.117188 133.695313 114.183594 152.878906 103.535156 C 154.144531 102.832031 155.417969 102.0625 156.496094 101.257813 C 157.351563 100.621094 159.132813 98.949219 159.871094 98.726563 Z M 159.871094 98.726563 "/>
<path style=" stroke:none;fill-rule:evenodd;fill:rgb(99.609375%,76.5625%,7.054138%);fill-opacity:1;" d="M 169.578125 91.410156 C 168.296875 87.539063 177.632813 87.777344 178.546875 90.621094 C 179.691406 94.191406 170.546875 94.351563 169.578125 91.410156 Z M 159.871094 98.726563 L 159.847656 98.785156 C 160.011719 98.960938 161.363281 102.023438 162.617188 103.800781 C 163.152344 104.5625 163.703125 105.316406 164.25 106.027344 L 169.871094 112.203125 C 170.578125 112.894531 171.171875 113.367188 171.855469 114.074219 C 172.386719 114.628906 172.386719 114.671875 172.902344 115.066406 C 173.789063 115.746094 173.640625 115.519531 173.960938 116.191406 C 175.710938 116.722656 176.945313 119.6875 179.34375 117.742188 C 180.640625 116.691406 182.101563 114.875 183.125 113.125 C 185.492188 109.09375 186.894531 105.101563 186.261719 99.335938 C 184.566406 92.972656 181.652344 86 173.425781 86.316406 C 169.554688 86.464844 166.050781 87.769531 163.773438 89.699219 C 161.207031 91.882813 159.9375 93.921875 159.871094 98.726563 Z M 159.871094 98.726563 "/>
<path style=" stroke:none;fill-rule:evenodd;fill:rgb(95.701599%,56.443787%,7.835388%);fill-opacity:1;" d="M 159.851563 104.351563 C 160.402344 114.191406 163.363281 120.382813 173.960938 116.191406 C 173.640625 115.519531 173.789063 115.746094 172.902344 115.066406 C 172.386719 114.671875 172.386719 114.628906 171.855469 114.074219 C 171.171875 113.367188 170.578125 112.894531 169.871094 112.203125 L 164.25 106.027344 C 163.703125 105.316406 163.152344 104.5625 162.617188 103.800781 C 161.363281 102.023438 160.011719 98.960938 159.847656 98.785156 Z M 159.851563 104.351563 "/>
<path style=" stroke:none;fill-rule:evenodd;fill:rgb(99.609375%,95.701599%,72.459412%);fill-opacity:1;" d="M 169.578125 91.410156 C 170.546875 94.351563 179.691406 94.191406 178.546875 90.621094 C 177.632813 87.777344 168.296875 87.539063 169.578125 91.410156 Z M 169.578125 91.410156 "/>
<g clip-path="url(#clip1)" clip-rule="nonzero">
<path style=" stroke:none;fill-rule:evenodd;fill:rgb(45.872498%,78.90625%,6.665039%);fill-opacity:1;" d="M 224.976563 286.796875 C 224.976563 283.261719 225.546875 280.796875 228.050781 278.292969 C 232.179688 274.167969 239.144531 274.167969 243.273438 278.292969 C 249.828125 284.851563 245.460938 296.65625 235.660156 296.65625 C 229.695313 296.65625 224.976563 291.609375 224.976563 286.796875 Z M 215.179688 284.71875 C 215.179688 288.996094 215.355469 291.21875 217.253906 295.109375 C 219.324219 299.355469 223.171875 302.867188 227.492188 304.757813 C 237.765625 309.246094 244.714844 303.945313 246.347656 303.566406 C 246.347656 308.828125 246.953125 310.960938 244.6875 314.519531 C 243.300781 316.691406 240.027344 319.296875 236.550781 319.296875 C 233.707031 319.296875 231.535156 319.027344 229.257813 317.242188 C 228.796875 316.878906 228.226563 316.320313 227.796875 316.03125 L 222.566406 321.042969 C 221.933594 321.625 221.304688 321.984375 220.820313 322.710938 C 221.820313 324.207031 224.644531 325.996094 226.375 326.953125 C 229.859375 328.878906 233.023438 329.09375 236.996094 329.09375 C 243.332031 329.09375 249.832031 324.761719 253.054688 319.621094 C 254.324219 317.597656 255.289063 315.304688 255.808594 312.878906 C 256.042969 311.792969 256.03125 311.1875 256.183594 309.992188 L 256.148438 284.5625 C 256.132813 278.421875 251.675781 271.5625 246.542969 268.492188 C 242.414063 266.027344 239.679688 265.425781 234.621094 265.425781 C 231.914063 265.425781 228.714844 266.4375 226.902344 267.351563 C 224.523438 268.554688 223.050781 269.5 221.226563 271.324219 C 217.953125 274.605469 215.179688 279.722656 215.179688 284.71875 Z M 215.179688 284.71875 "/>
</g>
<path style=" stroke:none;fill-rule:evenodd;fill:rgb(45.872498%,78.90625%,6.665039%);fill-opacity:1;" d="M 24.472656 275.21875 L 25.660156 275.21875 C 30.992188 275.21875 35.898438 280.125 35.898438 285.460938 L 35.898438 286.351563 C 35.898438 295.171875 24.390625 300.335938 17.679688 293.585938 C 10.257813 286.121094 16.6875 275.21875 24.472656 275.21875 Z M 35.898438 268.390625 C 31.425781 266.027344 29.804688 265.425781 24.324219 265.425781 C 11.425781 265.425781 0.0507813 280.140625 6.367188 294.214844 C 7.433594 296.59375 8.851563 298.476563 10.484375 300.339844 C 11.757813 301.792969 14.652344 303.625 16.40625 304.507813 C 23.664063 308.164063 33.578125 306.613281 39.277344 300.859375 C 42.769531 297.328125 45.695313 292.492188 45.695313 286.945313 L 45.695313 253.550781 L 35.898438 253.550781 Z M 35.898438 268.390625 "/>
<path style=" stroke:none;fill-rule:evenodd;fill:rgb(45.872498%,78.90625%,6.665039%);fill-opacity:1;" d="M 269.203125 286.351563 L 269.203125 285.460938 C 269.203125 280.117188 274.097656 275.21875 279.441406 275.21875 C 282.390625 275.21875 284.105469 275.660156 286.378906 277.335938 C 289.722656 279.8125 291.429688 284.269531 290.339844 288.492188 C 288.699219 294.84375 281.976563 298.441406 275.644531 295.785156 C 272.417969 294.433594 269.203125 290.820313 269.203125 286.351563 Z M 259.40625 284.867188 C 259.40625 288.980469 259.683594 291.363281 261.484375 294.957031 C 263.933594 299.839844 267.054688 302.503906 271.824219 304.804688 C 273.78125 305.746094 278.1875 306.71875 280.320313 306.527344 C 286.5 305.980469 289.609375 304.683594 293.804688 301.007813 L 295.722656 299.070313 C 302.425781 291.167969 301.988281 278.984375 294.691406 271.695313 C 291.144531 268.148438 286.292969 265.425781 280.777344 265.425781 L 278.847656 265.425781 C 268.941406 265.425781 259.40625 274.957031 259.40625 284.867188 Z M 259.40625 284.867188 "/>
<path style=" stroke:none;fill-rule:evenodd;fill:rgb(45.872498%,78.90625%,6.665039%);fill-opacity:1;" d="M 107.582031 275.21875 L 108.769531 275.21875 C 114.101563 275.21875 119.007813 280.125 119.007813 285.460938 L 119.007813 286.351563 C 119.007813 295.171875 107.5 300.335938 100.792969 293.585938 C 99.386719 292.171875 98.496094 290.847656 97.878906 288.628906 C 97.265625 286.417969 97.546875 283.703125 98.335938 281.851563 C 99.871094 278.253906 103.621094 275.21875 107.582031 275.21875 Z M 87.695313 285.90625 C 87.695313 291.804688 90.074219 296.324219 93.59375 300.339844 C 94.867188 301.792969 97.761719 303.625 99.515625 304.507813 C 103.308594 306.417969 108.121094 306.957031 112.320313 306.078125 C 113.582031 305.816406 115.117188 305.378906 116.1875 304.902344 C 118.484375 303.875 120.707031 302.554688 122.386719 300.859375 C 125.878906 297.328125 128.804688 292.492188 128.804688 286.945313 L 128.804688 284.867188 C 128.804688 274.960938 119.269531 265.425781 109.363281 265.425781 C 104.585938 265.425781 103.648438 265.65625 99.4375 267.371094 C 97.375 268.214844 95.148438 270.066406 93.59375 271.621094 C 90.523438 274.6875 87.695313 279.832031 87.695313 285.90625 Z M 87.695313 285.90625 "/>
<path style=" stroke:none;fill-rule:evenodd;fill:rgb(45.872498%,78.90625%,6.665039%);fill-opacity:1;" d="M 178.375 283.234375 L 178.375 306.089844 C 178.375 306.429688 178.476563 306.535156 178.820313 306.535156 L 188.167969 306.535156 L 188.167969 283.085938 C 188.167969 274.226563 199.925781 273.316406 201.886719 280.792969 C 202.394531 282.730469 202.121094 299.066406 202.121094 303.566406 C 202.121094 304.972656 201.84375 306.535156 202.566406 306.535156 L 211.914063 306.535156 L 211.914063 281.898438 C 211.914063 279.558594 211.054688 276.941406 210.285156 275.363281 C 207.582031 269.828125 201.617188 265.871094 195.292969 265.871094 C 191.640625 265.871094 186.949219 267.441406 184.421875 269.839844 C 182.992188 271.199219 182.8125 271.03125 181.3125 273.257813 C 179.390625 276.105469 178.375 279.382813 178.375 283.234375 Z M 178.375 283.234375 "/>
<path style=" stroke:none;fill-rule:evenodd;fill:rgb(45.872498%,78.90625%,6.665039%);fill-opacity:1;" d="M 49.996094 289.910156 C 49.996094 296.816406 54.800781 302.449219 60.289063 305 C 61.339844 305.492188 62.378906 305.773438 63.53125 306.0625 C 69.0625 307.449219 75.359375 305.523438 79.347656 301.601563 C 81.851563 299.144531 84.578125 294.65625 84.578125 289.761719 L 84.578125 266.464844 L 74.78125 266.464844 L 74.78125 289.320313 C 74.78125 293.453125 71.308594 296.589844 67.34375 296.675781 C 63.386719 296.757813 59.792969 293.445313 59.792969 289.464844 L 59.792969 266.464844 L 49.996094 266.464844 Z M 49.996094 289.910156 "/>
<path style=" stroke:none;fill-rule:evenodd;fill:rgb(45.872498%,78.90625%,6.665039%);fill-opacity:1;" d="M 133.109375 289.910156 C 133.109375 298.0625 140.65625 305.941406 149.730469 305.941406 L 157.449219 305.941406 L 157.449219 296.144531 L 150.027344 296.144531 C 145.976563 296.144531 142.902344 292.890625 142.902344 289.613281 L 142.902344 253.550781 L 133.109375 253.550781 Z M 133.109375 289.910156 "/>
<path style=" stroke:none;fill-rule:evenodd;fill:rgb(45.872498%,78.90625%,6.665039%);fill-opacity:1;" d="M 162.199219 268.984375 L 162.199219 306.089844 C 162.199219 306.429688 162.300781 306.535156 162.640625 306.535156 L 171.992188 306.535156 L 171.992188 268.984375 C 171.992188 268.644531 171.890625 268.539063 171.546875 268.539063 L 162.640625 268.539063 C 162.300781 268.539063 162.199219 268.644531 162.199219 268.984375 Z M 162.199219 268.984375 "/>
<path style=" stroke:none;fill-rule:evenodd;fill:rgb(45.872498%,78.90625%,6.665039%);fill-opacity:1;" d="M 162.199219 259.933594 C 162.199219 262.699219 164.390625 264.824219 166.964844 264.960938 C 169.582031 265.101563 171.992188 262.949219 171.992188 259.785156 C 171.992188 257.558594 169.84375 255.183594 167.6875 255.183594 L 166.796875 255.183594 C 164.382813 255.183594 162.199219 257.507813 162.199219 259.933594 Z M 162.199219 259.933594 "/>
</g>
</svg>
