<svg class="animated" id="freepik_stories-nerd" xmlns="http://www.w3.org/2000/svg" viewBox="0 0 500 500" version="1.1" xmlns:xlink="http://www.w3.org/1999/xlink" xmlns:svgjs="http://svgjs.com/svgjs"><style>svg#freepik_stories-nerd:not(.animated) .animable {opacity: 0;}svg#freepik_stories-nerd.animated #freepik--background-complete--inject-2 {animation: 1s 1 forwards cubic-bezier(.36,-0.01,.5,1.38) slideLeft;animation-delay: 0s;}svg#freepik_stories-nerd.animated #freepik--Shadow--inject-2 {animation: 1s 1 forwards cubic-bezier(.36,-0.01,.5,1.38) fadeIn;animation-delay: 0s;}svg#freepik_stories-nerd.animated #freepik--character-2--inject-2 {animation: 1s 1 forwards cubic-bezier(.36,-0.01,.5,1.38) slideUp;animation-delay: 0s;}svg#freepik_stories-nerd.animated #freepik--character-1--inject-2 {animation: 1s 1 forwards cubic-bezier(.36,-0.01,.5,1.38) slideDown;animation-delay: 0s;}            @keyframes slideLeft {                0% {                    opacity: 0;                    transform: translateX(-30px);                }                100% {                    opacity: 1;                    transform: translateX(0);                }            }                    @keyframes fadeIn {                0% {                    opacity: 0;                }                100% {                    opacity: 1;                }            }                    @keyframes slideUp {                0% {                    opacity: 0;                    transform: translateY(30px);                }                100% {                    opacity: 1;                    transform: inherit;                }            }                    @keyframes slideDown {                0% {                    opacity: 0;                    transform: translateY(-30px);                }                100% {                    opacity: 1;                    transform: translateY(0);                }            }        </style><g id="freepik--background-complete--inject-2" class="animable" style="transform-origin: 250px 226.945px;"><rect y="382.4" width="500" height="0.25" style="fill: rgb(230, 230, 230); transform-origin: 250px 382.525px;" id="elvp6ibzm1bnq" class="animable"></rect><rect x="58.55" y="392.92" width="18.21" height="0.25" style="fill: rgb(230, 230, 230); transform-origin: 67.655px 393.045px;" id="elhfoqbh1ftqa" class="animable"></rect><rect x="84.1" y="392.8" width="35.55" height="0.25" style="fill: rgb(230, 230, 230); transform-origin: 101.875px 392.925px;" id="el3d01kxismbm" class="animable"></rect><rect x="140.46" y="398.64" width="28.81" height="0.25" style="fill: rgb(230, 230, 230); transform-origin: 154.865px 398.765px;" id="el9pf46t3cjpe" class="animable"></rect><rect x="204.74" y="387.97" width="57.78" height="0.25" style="fill: rgb(230, 230, 230); transform-origin: 233.63px 388.095px;" id="el06qcpepqthgh" class="animable"></rect><rect x="376.44" y="392.32" width="51.72" height="0.25" style="fill: rgb(230, 230, 230); transform-origin: 402.3px 392.445px;" id="elpwjjbkezuvo" class="animable"></rect><rect x="361.05" y="392.32" width="9.84" height="0.25" style="fill: rgb(230, 230, 230); transform-origin: 365.97px 392.445px;" id="el6jkxh36jgwv" class="animable"></rect><rect x="443.16" y="398.51" width="9.84" height="0.25" style="fill: rgb(230, 230, 230); transform-origin: 448.08px 398.635px;" id="elbyiz2e7vixr" class="animable"></rect><path d="M237,337.8H43.91a5.71,5.71,0,0,1-5.7-5.71V60.66A5.71,5.71,0,0,1,43.91,55H237a5.71,5.71,0,0,1,5.71,5.71V332.09A5.71,5.71,0,0,1,237,337.8ZM43.91,55.2a5.46,5.46,0,0,0-5.45,5.46V332.09a5.46,5.46,0,0,0,5.45,5.46H237a5.47,5.47,0,0,0,5.46-5.46V60.66A5.47,5.47,0,0,0,237,55.2Z" style="fill: rgb(230, 230, 230); transform-origin: 140.46px 196.4px;" id="elpdjh406faac" class="animable"></path><path d="M453.31,337.8H260.21a5.72,5.72,0,0,1-5.71-5.71V60.66A5.72,5.72,0,0,1,260.21,55h193.1A5.71,5.71,0,0,1,459,60.66V332.09A5.71,5.71,0,0,1,453.31,337.8ZM260.21,55.2a5.47,5.47,0,0,0-5.46,5.46V332.09a5.47,5.47,0,0,0,5.46,5.46h193.1a5.47,5.47,0,0,0,5.46-5.46V60.66a5.47,5.47,0,0,0-5.46-5.46Z" style="fill: rgb(230, 230, 230); transform-origin: 356.75px 196.4px;" id="elex9mujacrlq" class="animable"></path><rect x="57.6" y="73.79" width="259.39" height="116.78" style="fill: rgb(224, 224, 224); transform-origin: 187.295px 132.18px;" id="el1nodsrdidah" class="animable"></rect><rect x="60.14" y="73.79" width="262.29" height="116.78" style="fill: rgb(240, 240, 240); transform-origin: 191.285px 132.18px;" id="elxp4ad0wez4i" class="animable"></rect><rect x="57.6" y="190.57" width="259.39" height="10.11" style="fill: rgb(224, 224, 224); transform-origin: 187.295px 195.625px;" id="el7lqowehmo3" class="animable"></rect><rect x="69.21" y="190.57" width="262.29" height="10.11" style="fill: rgb(235, 235, 235); transform-origin: 200.355px 195.625px;" id="el6a595lghkpr" class="animable"></rect><g id="elf2sji5pjxj7"><rect x="140.52" y="8.65" width="101.54" height="247.05" style="fill: rgb(250, 250, 250); transform-origin: 191.29px 132.175px; transform: rotate(90deg);" class="animable" id="elf2yygrrqzfm"></rect></g><polygon points="115.07 182.95 159.78 81.41 180.88 81.41 136.18 182.95 115.07 182.95" style="fill: rgb(255, 255, 255); transform-origin: 147.975px 132.18px;" id="elvv3p2xmumg" class="animable"></polygon><path d="M71.29,165.09a.54.54,0,0,1-.54-.54V86.36a.54.54,0,0,1,1.08,0v78.19A.54.54,0,0,1,71.29,165.09Z" style="fill: rgb(235, 235, 235); transform-origin: 71.29px 125.455px;" id="el1xpvtai8vc6" class="animable"></path><polygon points="140.71 182.95 185.42 81.41 193.65 81.41 148.94 182.95 140.71 182.95" style="fill: rgb(255, 255, 255); transform-origin: 167.18px 132.18px;" id="ela29ovcxcjvm" class="animable"></polygon><g id="el5xe3lge993l"><rect x="263.56" y="131.69" width="101.54" height="0.97" style="fill: rgb(224, 224, 224); transform-origin: 314.33px 132.175px; transform: rotate(90deg);" class="animable" id="el98nz4xjmzj"></rect></g><polygon points="324.23 91.15 64.84 91.15 64.14 84.37 323.53 84.37 324.23 91.15" style="fill: rgb(224, 224, 224); transform-origin: 194.185px 87.76px;" id="elxe10qmkbzi" class="animable"></polygon><polygon points="324.23 96.12 64.84 96.12 64.14 89.33 323.53 89.33 324.23 96.12" style="fill: rgb(224, 224, 224); transform-origin: 194.185px 92.725px;" id="elvu3mptjnw6i" class="animable"></polygon><polygon points="324.23 102.08 64.84 102.08 64.14 95.29 323.53 95.29 324.23 102.08" style="fill: rgb(224, 224, 224); transform-origin: 194.185px 98.685px;" id="elnwrscddhdal" class="animable"></polygon><polygon points="324.23 108.71 64.84 108.71 64.14 101.92 323.53 101.92 324.23 108.71" style="fill: rgb(224, 224, 224); transform-origin: 194.185px 105.315px;" id="elu9o2xa5l3so" class="animable"></polygon><polygon points="324.23 116.65 64.84 116.65 64.14 109.87 323.53 109.87 324.23 116.65" style="fill: rgb(224, 224, 224); transform-origin: 194.185px 113.26px;" id="el6sz75g5tmza" class="animable"></polygon><polygon points="324.23 125.59 64.84 125.59 64.14 118.81 323.53 118.81 324.23 125.59" style="fill: rgb(224, 224, 224); transform-origin: 194.185px 122.2px;" id="eld498nmnjufc" class="animable"></polygon><rect x="361.69" y="82.41" width="65.49" height="86.08" style="fill: rgb(224, 224, 224); transform-origin: 394.435px 125.45px;" id="eluy81fhpp4kk" class="animable"></rect><rect x="364" y="82.41" width="67.64" height="86.08" style="fill: rgb(245, 245, 245); transform-origin: 397.82px 125.45px;" id="elazu9z2gxosh" class="animable"></rect><g id="elwndarl00y7q"><rect x="360.45" y="97.3" width="74.75" height="56.31" style="fill: rgb(255, 255, 255); transform-origin: 397.825px 125.455px; transform: rotate(90deg);" class="animable" id="elu8y4y0owqsl"></rect></g><path d="M411.53,139.71H396.91a13.35,13.35,0,0,1-13.33-13.34V111.75a.54.54,0,0,1,.54-.54h14.62a13.35,13.35,0,0,1,13.33,13.33v14.62A.55.55,0,0,1,411.53,139.71ZM384.67,112.3v14.07a12.26,12.26,0,0,0,12.24,12.25H411V124.54a12.26,12.26,0,0,0-12.25-12.24Z" style="fill: rgb(235, 235, 235); transform-origin: 397.825px 125.46px;" id="el9twwaxxkl0r" class="animable"></path><path d="M245.68,247c0,3,2.11,5.14-.92,5.14s-10-2.11-10-5.14a5.48,5.48,0,0,1,11,0Z" style="fill: rgb(230, 230, 230); transform-origin: 240.577px 246.82px;" id="elq2yvqexhll" class="animable"></path><path d="M255.06,249.63c0,3,2.11,5.13-.92,5.13s-10-2.11-10-5.13a5.48,5.48,0,1,1,11,0Z" style="fill: rgb(230, 230, 230); transform-origin: 249.957px 249.445px;" id="el1yd8uiazx6i" class="animable"></path><path d="M264.05,248c0,3,2.11,5.13-.92,5.13s-10-2.11-10-5.13a5.48,5.48,0,0,1,11,0Z" style="fill: rgb(230, 230, 230); transform-origin: 258.947px 247.815px;" id="elxhaw3g0bkj" class="animable"></path><path d="M231.36,248.73s.45,10.69,17.63,10.69,17.63-10.69,17.63-10.69Z" style="fill: rgb(245, 245, 245); transform-origin: 248.99px 254.075px;" id="elcqg3gx8ganm" class="animable"></path><polygon points="267.25 184.13 367.63 184.13 373.46 244.72 273.08 244.72 267.25 184.13" style="fill: rgb(230, 230, 230); transform-origin: 320.355px 214.425px;" id="elump64r6bml" class="animable"></polygon><polygon points="317.59 197.18 333.14 197.18 326.2 257.77 310.65 257.77 317.59 197.18" style="fill: rgb(230, 230, 230); transform-origin: 321.895px 227.475px;" id="el3fpok1dmzyb" class="animable"></polygon><polygon points="334.1 197.18 328.27 248.08 327.16 257.77 311.61 257.77 312.72 248.08 318.55 197.18 334.1 197.18" style="fill: rgb(240, 240, 240); transform-origin: 322.855px 227.475px;" id="el4dscm6tq1yi" class="animable"></polygon><polygon points="334.1 197.18 328.27 248.08 312.72 248.08 318.55 197.18 334.1 197.18" style="fill: rgb(230, 230, 230); transform-origin: 323.41px 222.63px;" id="el6c361aawknd" class="animable"></polygon><polygon points="268.18 184.13 370.79 184.13 376.62 244.72 274.01 244.72 268.18 184.13" style="fill: rgb(240, 240, 240); transform-origin: 322.4px 214.425px;" id="elh2g0errna6" class="animable"></polygon><polygon points="276.6 241.96 271.29 186.9 368.2 186.9 373.51 241.96 276.6 241.96" style="fill: rgb(255, 255, 255); transform-origin: 322.4px 214.43px;" id="elvpeqddv5lj" class="animable"></polygon><rect x="303" y="257.77" width="13.75" height="1.66" style="fill: rgb(230, 230, 230); transform-origin: 309.875px 258.6px;" id="el8anw3bp323t" class="animable"></rect><g id="elpagh4fv4dk7"><rect x="316.75" y="257.77" width="22.92" height="1.66" style="fill: rgb(240, 240, 240); transform-origin: 328.21px 258.6px; transform: rotate(180deg);" class="animable" id="ellrv002bltkp"></rect></g><rect x="420.19" y="259.43" width="7.79" height="122.97" style="fill: rgb(230, 230, 230); transform-origin: 424.085px 320.915px;" id="elj5nz3sbco7b" class="animable"></rect><rect x="425.03" y="259.43" width="5.41" height="122.97" style="fill: rgb(240, 240, 240); transform-origin: 427.735px 320.915px;" id="el38vjh5aukde" class="animable"></rect><g id="elocvrsx25evd"><rect x="119.14" y="259.43" width="312.98" height="9.57" style="fill: rgb(240, 240, 240); transform-origin: 275.63px 264.215px; transform: rotate(180deg);" class="animable" id="el16imeihbnrl"></rect></g><rect x="107.86" y="269" width="7.79" height="113.4" style="fill: rgb(224, 224, 224); transform-origin: 111.755px 325.7px;" id="elbi8ohq2t5po" class="animable"></rect><rect x="112.69" y="269" width="5.41" height="113.4" style="fill: rgb(240, 240, 240); transform-origin: 115.395px 325.7px;" id="eltr4jj69zn9f" class="animable"></rect><rect x="58.55" y="269" width="7.79" height="113.4" style="fill: rgb(224, 224, 224); transform-origin: 62.445px 325.7px;" id="el02wmclull9vh" class="animable"></rect><rect x="63.39" y="269" width="5.41" height="113.4" style="fill: rgb(240, 240, 240); transform-origin: 66.095px 325.7px;" id="elwzf7qfpb5g" class="animable"></rect><rect x="370.89" y="269" width="7.79" height="113.4" style="fill: rgb(230, 230, 230); transform-origin: 374.785px 325.7px;" id="elnqilbmu312k" class="animable"></rect><rect x="375.73" y="269" width="5.41" height="113.4" style="fill: rgb(240, 240, 240); transform-origin: 378.435px 325.7px;" id="elu7k98jl6bwt" class="animable"></rect><rect x="58.55" y="259.43" width="60.58" height="9.57" style="fill: rgb(224, 224, 224); transform-origin: 88.84px 264.215px;" id="elnguaaq7e3zj" class="animable"></rect><polygon points="118.11 218.91 183.12 218.91 192.55 257.3 127.53 257.3 118.11 218.91" style="fill: rgb(230, 230, 230); transform-origin: 155.33px 238.105px;" id="ela4mntzu22ep" class="animable"></polygon><polygon points="127.53 257.3 127.79 259.43 192.81 259.43 192.55 257.3 127.53 257.3" style="fill: rgb(230, 230, 230); transform-origin: 160.17px 258.365px;" id="eliycswee6tu" class="animable"></polygon><polygon points="120.11 218.91 185.13 218.91 194.55 257.3 129.53 257.3 120.11 218.91" style="fill: rgb(240, 240, 240); transform-origin: 157.33px 238.105px;" id="el1zkqz4t96tb" class="animable"></polygon><polygon points="130.91 255.55 122.34 220.66 183.75 220.66 192.31 255.55 130.91 255.55" style="fill: rgb(255, 255, 255); transform-origin: 157.325px 238.105px;" id="el58fccxgspir" class="animable"></polygon><polygon points="146.47 257.3 146.73 259.43 218.33 259.43 218.07 257.3 146.47 257.3" style="fill: rgb(250, 250, 250); transform-origin: 182.4px 258.365px;" id="eluilf55ru3o" class="animable"></polygon><path d="M199,382.4h-2.17l-6.18-30.48-1.08-5.34-6.75-33.21H156.94l-14,69h-2.17L155,312.1a1.07,1.07,0,0,1,1-.85h27.6a1,1,0,0,1,1,.85l5.92,29.17,1.09,5.33Z" style="fill: rgb(240, 240, 240); transform-origin: 169.885px 346.825px;" id="el1bf7idl0ax6" class="animable"></path><path d="M240.51,382.4h-2.16l-14-69H198.47l-6.75,33.23-1.08,5.32-6.19,30.48h-2.16l7.27-35.82,1.07-5.31,5.93-29.17a1.06,1.06,0,0,1,1-.85h27.59a1.05,1.05,0,0,1,1,.85Z" style="fill: rgb(240, 240, 240); transform-origin: 211.4px 346.855px;" id="elv62f62dfpv" class="animable"></path><path d="M176.76,312.31h47.52A16.67,16.67,0,0,0,241,296l1.77-72.23a12.14,12.14,0,0,0-12.14-12.38H200.79a12.14,12.14,0,0,0-12.06,10.76Z" style="fill: rgb(224, 224, 224); transform-origin: 209.766px 261.85px;" id="eln3tbkp3010k" class="animable"></path><g id="elcbq18lo515m"><path d="M149.66,303.2H200.3a2.37,2.37,0,0,1,2.37,2.37v.22a6.51,6.51,0,0,1-6.51,6.51H149.66a0,0,0,0,1,0,0V303.2A0,0,0,0,1,149.66,303.2Z" style="fill: rgb(224, 224, 224); transform-origin: 176.165px 307.75px; transform: rotate(180deg);" class="animable" id="elmxt8r2qumg9"></path></g><path d="M364,382.4h-2.17l-6.18-30.48-1.09-5.34-6.74-33.21H322l-14,69h-2.17l14.28-70.3a1.07,1.07,0,0,1,1-.85h27.6a1,1,0,0,1,1,.85l5.92,29.17,1.09,5.33Z" style="fill: rgb(240, 240, 240); transform-origin: 334.915px 346.81px;" id="el8vlq4t0etys" class="animable"></path><path d="M405.53,382.4h-2.16l-14-69H363.49l-6.75,33.23-1.08,5.32-6.19,30.48h-2.16l7.26-35.82,1.08-5.31,5.93-29.17a1.06,1.06,0,0,1,1-.85h27.59a1.05,1.05,0,0,1,1,.85Z" style="fill: rgb(240, 240, 240); transform-origin: 376.42px 346.855px;" id="el1djri459aq3" class="animable"></path><path d="M341.78,312.31H389.3A16.67,16.67,0,0,0,406,296l1.77-72.23a12.14,12.14,0,0,0-12.14-12.38H365.81a12.14,12.14,0,0,0-12.06,10.76Z" style="fill: rgb(240, 240, 240); transform-origin: 374.776px 261.85px;" id="el5gr9th5xt1" class="animable"></path><g id="elyqlwf2gtubp"><path d="M314.68,303.2h50.64a2.37,2.37,0,0,1,2.37,2.37v.22a6.51,6.51,0,0,1-6.51,6.51H314.68a0,0,0,0,1,0,0V303.2a0,0,0,0,1,0,0Z" style="fill: rgb(240, 240, 240); transform-origin: 341.185px 307.75px; transform: rotate(180deg);" class="animable" id="el393fwq7z8cg"></path></g><path d="M99.89,243.78a5.32,5.32,0,0,0-.56.06v-1.26A1.58,1.58,0,0,0,97.75,241H85.42a1.59,1.59,0,0,0-1.59,1.58v16.84h15.5v-2.83a5.29,5.29,0,0,0,.56.05,4.67,4.67,0,0,0,4.67-4.66v-3.53A4.68,4.68,0,0,0,99.89,243.78Zm2.67,8.2a2.67,2.67,0,0,1-2.67,2.66,2.6,2.6,0,0,1-.56-.06v-8.74a3.43,3.43,0,0,1,.56-.06,2.68,2.68,0,0,1,2.67,2.67Z" style="fill: rgb(224, 224, 224); transform-origin: 94.195px 250.21px;" id="elr0p58glcx7m" class="animable"></path></g><g id="freepik--Shadow--inject-2" class="animable" style="transform-origin: 250px 416.24px;"><ellipse cx="250" cy="416.24" rx="193.89" ry="11.32" style="fill: rgb(245, 245, 245); transform-origin: 250px 416.24px;" id="el2hzjd7wh6ku" class="animable"></ellipse></g><g id="freepik--character-2--inject-2" class="animable" style="transform-origin: 193.388px 262.959px;"><polygon points="138.8 182.7 139.36 191.56 144.88 191.75 146.32 183.11 138.8 182.7" style="fill: rgb(228, 137, 123); transform-origin: 142.56px 187.225px;" id="elf0k63jmy6bu" class="animable"></polygon><path d="M190,166.43c-1.52,4.74-3.19,9.3-5.05,13.89a131.92,131.92,0,0,1-6.4,13.65l-1,1.72-1.12,1.75c-.11.16-.15.25-.31.47s-.29.41-.45.61a14.21,14.21,0,0,1-1,1.17,10.86,10.86,0,0,1-2.68,2,11.75,11.75,0,0,1-6.13,1.25,15.94,15.94,0,0,1-4.9-1.18,22.25,22.25,0,0,1-3.86-2,31.14,31.14,0,0,1-3.3-2.37,38.55,38.55,0,0,1-2.91-2.63,37.54,37.54,0,0,1-2.68-2.9l4-4.32c.9.53,1.93,1.17,2.9,1.72s2,1.06,3,1.56a26,26,0,0,0,5.73,2.11A6.53,6.53,0,0,0,166,193c.55-.08.76-.26.83-.39l.15-.25.11-.22.07-.14.15-.3.72-1.36.71-1.48c1.85-4.05,3.55-8.46,5.17-12.88s3.25-8.93,4.82-13.33Z" style="fill: rgb(228, 137, 123); transform-origin: 169.105px 182.809px;" id="el7y3duegm4mv" class="animable"></path><path d="M152.39,187.67l-6.06-4.56-1.45,8.64s5,3.82,8.58.49Z" style="fill: rgb(228, 137, 123); transform-origin: 149.17px 188.356px;" id="elmy3v4sm1sqp" class="animable"></path><path d="M195.27,158.42c2.54,6.72-10.91,30.66-10.91,30.66l-16.89-5.75s6-16.42,11.16-24.14C184,151.26,192.49,151,195.27,158.42Z" style="fill: #035397; transform-origin: 181.53px 171.061px;" id="el3lcrzeixcog" class="animable"></path><g id="el9b1tqwk9mxk"><path d="M195.27,158.42c2.54,6.72-10.91,30.66-10.91,30.66l-16.89-5.75s6-16.42,11.16-24.14C184,151.26,192.49,151,195.27,158.42Z" style="opacity: 0.3; transform-origin: 181.53px 171.061px;" class="animable" id="elpyqxk2sin4q"></path></g><path d="M186.35,153.27s-8.88,16.79-.45,59.06h40.21c.28-6.17-3.6-30.36,2.35-59.44a103.47,103.47,0,0,0-13.46-1.7,147.52,147.52,0,0,0-17.09,0A75.48,75.48,0,0,0,186.35,153.27Z" style="fill: #035397; transform-origin: 205.363px 181.636px;" id="elc3o4ubuxcfr" class="animable"></path><g id="elolkmta4o679"><path d="M186.35,153.27s-8.88,16.79-.45,59.06h40.21c.28-6.17-3.6-30.36,2.35-59.44a103.47,103.47,0,0,0-13.46-1.7,147.52,147.52,0,0,0-17.09,0A75.48,75.48,0,0,0,186.35,153.27Z" style="opacity: 0.3; transform-origin: 205.363px 181.636px;" class="animable" id="elrvv1nn8mfvs"></path></g><polygon points="236.48 409.64 229.13 409.64 227.74 392.63 235.08 392.63 236.48 409.64" style="fill: rgb(228, 137, 123); transform-origin: 232.11px 401.135px;" id="el2irs2czlxay" class="animable"></polygon><polygon points="227.74 392.64 228.46 401.4 235.81 401.4 235.09 392.64 227.74 392.64" style="fill: rgb(206, 111, 100); transform-origin: 231.775px 397.02px;" id="elatncy91o5zt" class="animable"></polygon><polygon points="193.28 409.64 185.94 409.64 185.69 392.63 193.04 392.63 193.28 409.64" style="fill: rgb(228, 137, 123); transform-origin: 189.485px 401.135px;" id="elrrbc1nna53n" class="animable"></polygon><polygon points="185.69 392.64 185.82 401.4 193.17 401.4 193.04 392.64 185.69 392.64" style="fill: rgb(206, 111, 100); transform-origin: 189.43px 397.02px;" id="elr1mwg66xrsn" class="animable"></polygon><path d="M185.9,212.33s-5.4,68.92-6.41,91.84c-1.05,23.83,3.95,95.13,3.95,95.13h11.95s4.36-66.13,6.41-89.47c2.24-25.44,10.53-97.5,10.53-97.5Z" style="fill: #035397; transform-origin: 195.838px 305.815px;" id="elsa9s728t8so" class="animable"></path><g id="el66t1b8a5xom"><path d="M185.9,212.33s-5.4,68.92-6.41,91.84c-1.05,23.83,3.95,95.13,3.95,95.13h11.95s4.36-66.13,6.41-89.47c2.24-25.44,10.53-97.5,10.53-97.5Z" style="opacity: 0.7; transform-origin: 195.838px 305.815px;" class="animable" id="elw7q5iyzmgd"></path></g><path d="M228.85,408.79h8a.65.65,0,0,1,.63.51l1.45,6.53a1.07,1.07,0,0,1-1.06,1.3c-2.89-.05-7.07-.22-10.71-.22-4.25,0-4.84.24-9.83.24-3,0-3.86-3-2.59-3.33,5.74-1.26,7.35-1.39,12.32-4.45A3.36,3.36,0,0,1,228.85,408.79Z" style="fill: rgb(38, 50, 56); transform-origin: 226.564px 412.97px;" id="el0wqhmmiustrd" class="animable"></path><path d="M185.65,408.79h8a.63.63,0,0,1,.62.51l1.46,6.53a1.07,1.07,0,0,1-1.06,1.3c-2.9-.05-7.08-.22-10.71-.22-4.26,0-7.93.24-12.92.24-3,0-3.85-3-2.59-3.33,5.75-1.26,10.44-1.39,15.41-4.45A3.33,3.33,0,0,1,185.65,408.79Z" style="fill: rgb(38, 50, 56); transform-origin: 181.821px 412.97px;" id="el6qqr11a4yv7" class="animable"></path><path d="M182.62,409.92a2.27,2.27,0,0,1-1.49-.15,1,1,0,0,1-.51-.88.56.56,0,0,1,.22-.54c.74-.55,3.38.54,3.68.67a.19.19,0,0,1,.11.16.2.2,0,0,1-.11.17A9.51,9.51,0,0,1,182.62,409.92Zm-1.35-1.36a.44.44,0,0,0-.22.08c-.05,0-.09.08-.08.22a.74.74,0,0,0,.34.6,3.62,3.62,0,0,0,2.66-.28A7.26,7.26,0,0,0,181.27,408.56Z" style="fill: #035397; transform-origin: 182.621px 409.089px;" id="el48q8owgozkw" class="animable"></path><path d="M184.48,409.36h-.09c-.84-.3-2.58-1.69-2.55-2.54a.57.57,0,0,1,.48-.55,1,1,0,0,1,.79.11c1,.57,1.49,2.68,1.51,2.77a.16.16,0,0,1-.05.17A.2.2,0,0,1,184.48,409.36Zm-2-2.78-.08,0c-.22.07-.22.17-.23.22,0,.5,1.13,1.58,2,2a4.31,4.31,0,0,0-1.24-2.19A.66.66,0,0,0,182.5,406.58Z" style="fill: #035397; transform-origin: 183.233px 407.797px;" id="eligcefihd7v" class="animable"></path><polygon points="197.69 399.6 182.86 399.6 181.57 394 197.95 394.29 197.69 399.6" style="fill: #035397; transform-origin: 189.76px 396.8px;" id="elazxdpb5a0s9" class="animable"></polygon><path d="M225.82,409.92a2.27,2.27,0,0,1-1.49-.15,1.09,1.09,0,0,1-.51-.88.56.56,0,0,1,.22-.54c.75-.55,3.38.54,3.68.67a.17.17,0,0,1,.11.16.18.18,0,0,1-.11.17A9.51,9.51,0,0,1,225.82,409.92Zm-1.35-1.36a.48.48,0,0,0-.22.08.22.22,0,0,0-.08.22.74.74,0,0,0,.34.6,3.62,3.62,0,0,0,2.66-.28A7.26,7.26,0,0,0,224.47,408.56Z" style="fill: #035397; transform-origin: 225.821px 409.089px;" id="elpqeonj1fpk" class="animable"></path><path d="M227.68,409.36h-.09c-.83-.3-2.58-1.69-2.55-2.54a.58.58,0,0,1,.49-.55.94.94,0,0,1,.78.11c1,.57,1.49,2.68,1.51,2.77a.16.16,0,0,1,0,.17A.2.2,0,0,1,227.68,409.36Zm-2-2.78-.07,0c-.23.07-.23.17-.23.22,0,.5,1.12,1.58,2,2a4.32,4.32,0,0,0-1.25-2.19A.66.66,0,0,0,225.7,406.58Z" style="fill: #035397; transform-origin: 226.442px 407.796px;" id="el39lnae1rt1y" class="animable"></path><path d="M200.17,212.33s3.41,67.37,8.09,88.89c5.13,23.57,16.33,98.08,16.33,98.08h13.76s-4.61-72.61-7.54-95.94c-3.17-25.33-4.7-91-4.7-91Z" style="fill: #035397; transform-origin: 219.26px 305.815px;" id="el2gsex8y06w6" class="animable"></path><g id="elnaxjtg5mf1"><path d="M200.17,212.33s3.41,67.37,8.09,88.89c5.13,23.57,16.33,98.08,16.33,98.08h13.76s-4.61-72.61-7.54-95.94c-3.17-25.33-4.7-91-4.7-91Z" style="opacity: 0.7; transform-origin: 219.26px 305.815px;" class="animable" id="elret910k6pj"></path></g><path d="M232.8,391.17h0a.12.12,0,0,0,.1-.14c-.11-.7-3.48-65.86-6.11-86.82-2.85-22.75-3.74-83.11-3.8-83.62a.14.14,0,0,0-.15-.11.12.12,0,0,0-.11.14c.06.51,1,60.87,3.81,83.62,2.63,21,6,86.13,6.11,86.83A.13.13,0,0,0,232.8,391.17Z" style="fill: #035397; transform-origin: 227.815px 305.826px;" id="elumml878qb0f" class="animable"></path><g id="elpj9g9pubpws"><path d="M232.8,391.17h0a.12.12,0,0,0,.1-.14c-.11-.7-3.48-65.86-6.11-86.82-2.85-22.75-3.74-83.11-3.8-83.62a.14.14,0,0,0-.15-.11.12.12,0,0,0-.11.14c.06.51,1,60.87,3.81,83.62,2.63,21,6,86.13,6.11,86.83A.13.13,0,0,0,232.8,391.17Z" style="opacity: 0.4; transform-origin: 227.815px 305.826px;" class="animable" id="elpytez1ahxid"></path></g><polygon points="238.89 399.6 224.05 399.6 222.76 394 239.18 393.54 238.89 399.6" style="fill: #035397; transform-origin: 230.97px 396.57px;" id="elbtoooif5ma" class="animable"></polygon><path d="M213.31,131.94c-1.08,5.5-2.16,15.58,1.69,19.25,0,0-1.73,3.69-11.95,3.69-9.34,0-5.14-3.69-5.14-3.69,6.13-1.47,6-6,4.91-10.29Z" style="fill: rgb(228, 137, 123); transform-origin: 205.984px 143.41px;" id="elmavmaexsdf" class="animable"></path><path d="M209,135.6l-6.21,5.3a17,17,0,0,1,.53,3c2,1.9,5.56-2.91,5.81-5.36A8.3,8.3,0,0,0,209,135.6Z" style="fill: rgb(206, 111, 100); transform-origin: 205.997px 139.967px;" id="elkc9kfzjx9en" class="animable"></path><path d="M194.51,115.18c-3.34,2.23-3.39,12.79,1.71,14.25S200.84,111,194.51,115.18Z" style="fill: rgb(38, 50, 56); transform-origin: 195.93px 122.054px;" id="elbk76ucbqwn9" class="animable"></path><path d="M214,123.67c-.45,7.44-.34,11.82-4.1,15.65-5.66,5.75-14.85,2.33-16.63-5.1-1.6-6.69-.58-17.74,6.71-20.71A10.17,10.17,0,0,1,214,123.67Z" style="fill: rgb(228, 137, 123); transform-origin: 203.323px 127.475px;" id="eli2nvy0psxaf" class="animable"></path><path d="M216.58,114.28l-7.19,3.22c2.82,5.26-3.52,14.14,2.87,13.17C215.19,130.22,224.43,121.08,216.58,114.28Z" style="fill: rgb(38, 50, 56); transform-origin: 214.478px 122.512px;" id="elznvmx2y74a" class="animable"></path><path d="M214.72,127.77h0c-1.78-.41-7.32-1.55-7.38-1.56a.17.17,0,0,1-.13-.19.16.16,0,0,1,.19-.13c.06,0,5.61,1.15,7.4,1.56a.16.16,0,0,1,0,.32Z" style="fill: rgb(38, 50, 56); transform-origin: 211.084px 126.828px;" id="elp12ywboy6g" class="animable"></path><path d="M217.33,131.87a7.06,7.06,0,0,1-4.42,3.13c-2.43.54-3.51-1.67-2.72-3.89.72-2,2.84-4.68,5.22-4.22A3.19,3.19,0,0,1,217.33,131.87Z" style="fill: rgb(228, 137, 123); transform-origin: 213.932px 130.96px;" id="eldghasln11s" class="animable"></path><path d="M203.13,125.75c0,.6-.33,1.09-.72,1.09s-.72-.49-.72-1.09.32-1.1.72-1.1S203.13,125.14,203.13,125.75Z" style="fill: rgb(38, 50, 56); transform-origin: 202.41px 125.745px;" id="elu0nyvwgxdt" class="animable"></path><path d="M196.27,125.75c0,.6-.32,1.09-.72,1.09s-.71-.49-.71-1.09.32-1.1.71-1.1S196.27,125.14,196.27,125.75Z" style="fill: rgb(38, 50, 56); transform-origin: 195.555px 125.745px;" id="elcuna0zn61ig" class="animable"></path><path d="M198,126.05a21.74,21.74,0,0,1-2.89,5.18,3.46,3.46,0,0,0,2.89.55Z" style="fill: rgb(222, 87, 83); transform-origin: 196.555px 128.969px;" id="elwkrp5i81mzd" class="animable"></path><path d="M198.9,134.37a.18.18,0,0,1-.17-.19.17.17,0,0,1,.18-.17,4.82,4.82,0,0,0,4-1.71.19.19,0,0,1,.25-.05.18.18,0,0,1,0,.25A5.1,5.1,0,0,1,198.9,134.37Z" style="fill: rgb(38, 50, 56); transform-origin: 200.97px 133.301px;" id="el6veurcaw0tc" class="animable"></path><path d="M206.22,120.64a.34.34,0,0,1-.29-.11,2.8,2.8,0,0,0-2.38-1,.37.37,0,0,1-.41-.3.36.36,0,0,1,.29-.41,3.54,3.54,0,0,1,3,1.21.36.36,0,0,1,0,.5A.4.4,0,0,1,206.22,120.64Z" style="fill: rgb(38, 50, 56); transform-origin: 204.833px 119.724px;" id="elbapq7mouny" class="animable"></path><g id="elebvu34rn2wq"><rect x="207.77" y="170.99" width="11.75" height="0.96" style="fill: rgb(224, 224, 224); transform-origin: 213.645px 171.47px; transform: rotate(1.92deg);" class="animable" id="eldg0nqds4d6r"></rect></g><path d="M193.22,120.57a.39.39,0,0,1-.14-.08.37.37,0,0,1,0-.51,3.54,3.54,0,0,1,3.07-1.07.36.36,0,1,1-.14.7h0a2.84,2.84,0,0,0-2.42.87A.37.37,0,0,1,193.22,120.57Z" style="fill: rgb(38, 50, 56); transform-origin: 194.732px 119.731px;" id="elxgjnvzeyc" class="animable"></path><path d="M200.69,114.28s-.22-5.8,5.64-5.5c4.55.23,13.08,6.83,15.75,5.5,0,0-5,5.9-11.58,4A40,40,0,0,1,200.69,114.28Z" style="fill: rgb(38, 50, 56); transform-origin: 211.384px 113.713px;" id="el1rxrrhu2hy7" class="animable"></path><path d="M200.69,114.28s4.92-3,1.66-4.71c-4.74-2.46-10.44,6.48-13.1,5.15,0,0,.58,4.25,6.93,1.76A32.81,32.81,0,0,0,200.69,114.28Z" style="fill: rgb(38, 50, 56); transform-origin: 196.358px 113.201px;" id="elcqw2iqnvrgg" class="animable"></path><path d="M203.13,130.87c-2.42,0-4.39-2.46-4.39-5.48,0-2.68,1.56-4.16,4.39-4.16s4.4,1.48,4.4,4.16C207.53,128.41,205.56,130.87,203.13,130.87Zm0-9.32c-1.85,0-4.07.67-4.07,3.84,0,2.84,1.83,5.15,4.07,5.15s4.07-2.31,4.07-5.15C207.2,122.22,205,121.55,203.13,121.55Z" style="fill: rgb(38, 50, 56); transform-origin: 203.135px 126.05px;" id="el07ewazoa6red" class="animable"></path><path d="M193.21,130.87c-2,0-3.69-2.46-3.69-5.48,0-3.62,2.31-4.16,3.69-4.16s3.69.54,3.69,4.16C196.9,128.41,195.25,130.87,193.21,130.87Zm0-9.32c-1.54,0-3.37.67-3.37,3.84,0,2.84,1.51,5.15,3.37,5.15s3.37-2.31,3.37-5.15C196.58,122.22,194.75,121.55,193.21,121.55Z" style="fill: rgb(38, 50, 56); transform-origin: 193.21px 126.05px;" id="elfcy33mw3j56" class="animable"></path><path d="M196.44,123.62a.16.16,0,0,1-.14-.08.15.15,0,0,1,.06-.22,2.92,2.92,0,0,1,3,0,.17.17,0,0,1,.07.22.16.16,0,0,1-.22.07,2.56,2.56,0,0,0-2.67,0Z" style="fill: rgb(38, 50, 56); transform-origin: 197.86px 123.267px;" id="elxjz8n0gtry7" class="animable"></path><path d="M205.14,153.81s2.58,3.61,3.08,6.22c3.08-1.28,8.91-4.48,9.69-9a13.28,13.28,0,0,1-3.19-1.5S211.61,152.17,205.14,153.81Z" style="fill: rgb(240, 240, 240); transform-origin: 211.525px 154.78px;" id="ele6lcj1ro055" class="animable"></path><path d="M203.06,153.64a10.09,10.09,0,0,0-3,5.76c-3.08-1.28-4.29-5.46-3.48-8.23a17.54,17.54,0,0,1,3.65-1.2A3.55,3.55,0,0,0,203.06,153.64Z" style="fill: rgb(240, 240, 240); transform-origin: 199.698px 154.685px;" id="elsoil3y6dlw9" class="animable"></path><path d="M222.5,151.53l-1.9-.17a.37.37,0,0,0-.39.3c-5.29,28.37-2.32,58.49-2.32,58.49H220a269.73,269.73,0,0,1,2.86-58.2A.37.37,0,0,0,222.5,151.53Z" style="fill: #035397; transform-origin: 219.961px 180.755px;" id="el8w85eaayulc" class="animable"></path><g id="elcph6n6zhirs"><path d="M222.5,151.53l-1.9-.17a.37.37,0,0,0-.39.3c-5.29,28.37-2.32,58.49-2.32,58.49H220a269.73,269.73,0,0,1,2.86-58.2A.37.37,0,0,0,222.5,151.53Z" style="opacity: 0.7; transform-origin: 219.961px 180.755px;" class="animable" id="elohnnji9v0qb"></path></g><path d="M219.61,210.82h-1.45a.67.67,0,0,1-.67-.67h0a.68.68,0,0,1,.67-.68h1.45a.69.69,0,0,1,.68.68h0A.68.68,0,0,1,219.61,210.82Z" style="fill: rgb(224, 224, 224); transform-origin: 218.89px 210.145px;" id="elo4x8w3nt5o" class="animable"></path><path d="M218,212.59v-1.9a.88.88,0,0,1,.89-.88h0a.88.88,0,0,1,.88.88v1.9a.89.89,0,0,1-.88.88h0A.89.89,0,0,1,218,212.59Z" style="fill: rgb(224, 224, 224); transform-origin: 218.885px 211.64px;" id="elinkfqoo5uwi" class="animable"></path><path d="M190.67,151.91l-1.88.35a.37.37,0,0,0-.3.32c-4,28.38.39,57.57.39,57.57H191c-3.13-30.89-.35-54.17.13-57.83A.36.36,0,0,0,190.67,151.91Z" style="fill: #035397; transform-origin: 188.972px 181.022px;" id="elbsofv26oqte" class="animable"></path><g id="el8076985n3y9"><path d="M190.67,151.91l-1.88.35a.37.37,0,0,0-.3.32c-4,28.38.39,57.57.39,57.57H191c-3.13-30.89-.35-54.17.13-57.83A.36.36,0,0,0,190.67,151.91Z" style="opacity: 0.7; transform-origin: 188.972px 181.022px;" class="animable" id="elkfuv74ifz9m"></path></g><path d="M190.63,210.82h-1.45a.72.72,0,0,1-.71-.67h0a.66.66,0,0,1,.65-.68h1.45a.71.71,0,0,1,.7.68h0A.63.63,0,0,1,190.63,210.82Z" style="fill: rgb(224, 224, 224); transform-origin: 189.87px 210.145px;" id="elhvcdb8zi9" class="animable"></path><path d="M189.1,212.59l-.09-1.9a.84.84,0,0,1,.85-.88h0a.93.93,0,0,1,.92.88l.09,1.9a.84.84,0,0,1-.84.88h0A.94.94,0,0,1,189.1,212.59Z" style="fill: rgb(224, 224, 224); transform-origin: 189.94px 211.64px;" id="eleu2bijcfb4s" class="animable"></path><path d="M210.35,175h0a.56.56,0,0,1-.52-.58l.28-5a.54.54,0,0,1,.58-.52h0a.55.55,0,0,1,.52.58l-.28,5A.54.54,0,0,1,210.35,175Z" style="fill: #035397; transform-origin: 210.52px 171.95px;" id="elq87ppx0svym" class="animable"></path><path d="M212.06,176.8h0a.32.32,0,0,1-.32-.35l.34-7.12a.35.35,0,0,1,.36-.33h0a.34.34,0,0,1,.32.36l-.34,7.12A.34.34,0,0,1,212.06,176.8Z" style="fill: #035397; transform-origin: 212.25px 172.9px;" id="elaofpuzhdl3h" class="animable"></path><g id="elteqasv3hxi"><path d="M210.35,175h0a.56.56,0,0,1-.52-.58l.28-5a.54.54,0,0,1,.58-.52h0a.55.55,0,0,1,.52.58l-.28,5A.54.54,0,0,1,210.35,175Z" style="opacity: 0.7; transform-origin: 210.52px 171.95px;" class="animable" id="el8ge04x46r0y"></path></g><g id="elcdvx48399qt"><path d="M212.06,176.8h0a.32.32,0,0,1-.32-.35l.34-7.12a.35.35,0,0,1,.36-.33h0a.34.34,0,0,1,.32.36l-.34,7.12A.34.34,0,0,1,212.06,176.8Z" style="opacity: 0.7; transform-origin: 212.25px 172.9px;" class="animable" id="el6cqunxca2bd"></path></g><polygon points="203.67 154.87 205.14 153.81 208.26 156.81 203.67 154.87" style="fill: #035397; transform-origin: 205.965px 155.31px;" id="el57myt623i0j" class="animable"></polygon><g id="elg6wr2elszih"><polygon points="203.67 154.87 205.14 153.81 208.26 156.81 203.67 154.87" style="opacity: 0.5; transform-origin: 205.965px 155.31px;" class="animable" id="elbs9o0mp2ba"></polygon></g><polygon points="203.67 154.87 203.06 153.64 199.03 156.81 203.67 154.87" style="fill: #035397; transform-origin: 201.35px 155.225px;" id="elfllrraet1xt" class="animable"></polygon><g id="eluybozp8jerh"><polygon points="203.67 154.87 203.06 153.64 199.03 156.81 203.67 154.87" style="opacity: 0.5; transform-origin: 201.35px 155.225px;" class="animable" id="elaj9d0kipqzn"></polygon></g><path d="M205.07,156.41c1.74-.65,8.7-6.27,10.68-3.35s-.69,4,.18,6,2.18,5.38-2.19,4.5c-4.88-1-7.08-4.41-8.49-4.49C205.17,157.89,205.07,156.41,205.07,156.41Z" style="fill: #035397; transform-origin: 210.942px 157.964px;" id="elvlrws6g3lzm" class="animable"></path><g id="ela8qea1d6hrq"><path d="M205.07,156.41c1.74-.65,8.7-6.27,10.68-3.35s-.69,4,.18,6,2.18,5.38-2.19,4.5c-4.88-1-7.08-4.41-8.49-4.49C205.17,157.89,205.07,156.41,205.07,156.41Z" style="opacity: 0.7; transform-origin: 210.942px 157.964px;" class="animable" id="elfbh2eay2xni"></path></g><path d="M202.3,156c-1.46-.62-7.48-5.88-8.94-3.18s.79,3.69.18,5.53-1.49,5,2.05,4.2c3.94-.88,5.56-4.05,6.71-4.12Z" style="fill: #035397; transform-origin: 197.579px 157.366px;" id="el21z4v2q7jva" class="animable"></path><g id="els8lewach4d"><path d="M202.3,156c-1.46-.62-7.48-5.88-8.94-3.18s.79,3.69.18,5.53-1.49,5,2.05,4.2c3.94-.88,5.56-4.05,6.71-4.12Z" style="opacity: 0.7; transform-origin: 197.579px 157.366px;" class="animable" id="elly2f7j2z0y"></path></g><path d="M205.38,159.22c.72-1.21,1.2-4.54-.34-3.95s-1.71.67-2.15.38-1.59-.82-1.79.4.1,3.65,1.24,3.6S204.65,160.46,205.38,159.22Z" style="fill: #035397; transform-origin: 203.55px 157.547px;" id="elb5tqv8vn84" class="animable"></path><g id="el5zhxc1o7unl"><path d="M205.38,159.22c.72-1.21,1.2-4.54-.34-3.95s-1.71.67-2.15.38-1.59-.82-1.79.4.1,3.65,1.24,3.6S204.65,160.46,205.38,159.22Z" style="opacity: 0.7; transform-origin: 203.55px 157.547px;" class="animable" id="elfj8ikq91o9b"></path></g><path d="M151.56,180.72,149.36,197a.52.52,0,0,1-.54.44l-7-.42a.53.53,0,0,1-.48-.51l-.05-3.67-.13-8.56-.06-4.16Z" style="fill: #035397; transform-origin: 146.33px 188.78px;" id="elkidppb6w7wj" class="animable"></path><g id="el9bwdzlcgtp6"><path d="M151.56,180.72,149.36,197a.52.52,0,0,1-.54.44l-7-.42a.53.53,0,0,1-.48-.51l-.05-3.67-.13-8.56-.06-4.16Z" style="opacity: 0.3; transform-origin: 146.33px 188.78px;" class="animable" id="elv9daf2fzv9m"></path></g><g id="el9ozy24wonwt"><rect x="139.93" y="179.59" width="12.79" height="1.65" style="fill: #035397; transform-origin: 146.325px 180.415px; transform: rotate(3.44deg);" class="animable" id="eliektjrxsq3t"></rect></g><g id="el24myfih8qjv"><rect x="140.84" y="178.76" width="11.07" height="1.65" style="fill: #035397; transform-origin: 146.375px 179.585px; transform: rotate(3.44deg);" class="animable" id="elbwtbezr4li6"></rect></g><g id="elw500r9udum"><rect x="140.84" y="178.76" width="11.07" height="1.65" style="fill: rgb(245, 245, 245); transform-origin: 146.375px 179.585px; transform: rotate(3.44deg);" class="animable" id="elevnb4ckk38c"></rect></g><g id="elvhd2pkdgvv"><rect x="139.93" y="179.59" width="12.79" height="1.65" style="fill: rgb(235, 235, 235); transform-origin: 146.325px 180.415px; transform: rotate(3.44deg);" class="animable" id="elzgisogwl2kn"></rect></g><g id="elg0qohwfuch"><polygon points="145.28 184.5 144.77 193.02 141.22 192.81 141.09 184.25 145.28 184.5" style="fill: rgb(235, 235, 235); opacity: 0.43; transform-origin: 143.185px 188.635px;" class="animable" id="elrmwj54qwiaq"></polygon></g><path d="M242.3,235l-37.79-.85a3.54,3.54,0,0,1-3.3-4.05l3.13-33.13a3.3,3.3,0,0,1,4-3.13l37,8.48c1.26.29,2.16,1.92,2,3.62l-2.4,26C244.76,233.62,243.59,235,242.3,235Z" style="fill: #035397; transform-origin: 224.265px 214.382px;" id="elaqo16h0jgd6" class="animable"></path><g id="el40ohb4551ac"><path d="M242.3,235l-37.79-.85a3.54,3.54,0,0,1-3.3-4.05l3.13-33.13a3.3,3.3,0,0,1,4-3.13l37,8.48c1.26.29,2.16,1.92,2,3.62l-2.4,26C244.76,233.62,243.59,235,242.3,235Z" style="fill: rgb(255, 255, 255); opacity: 0.3; transform-origin: 224.265px 214.382px;" class="animable" id="els2m4udd1xxl"></path></g><path d="M243,235l-37.45-.85a3.51,3.51,0,0,1-3.26-4l3.11-33A3.27,3.27,0,0,1,209.3,194l36.66,8.4c1.26.28,2.15,1.91,2,3.61l-2.39,25.89C245.41,233.64,244.24,235,243,235Z" style="fill: #035397; transform-origin: 225.116px 214.469px;" id="eljuiz0mz3e8a" class="animable"></path><g id="ell8tgyn5perd"><path d="M243,235l-37.45-.85a3.51,3.51,0,0,1-3.26-4l3.11-33A3.27,3.27,0,0,1,209.3,194l36.66,8.4c1.26.28,2.15,1.91,2,3.61l-2.39,25.89C245.41,233.64,244.24,235,243,235Z" style="fill: rgb(255, 255, 255); opacity: 0.7; transform-origin: 225.116px 214.469px;" class="animable" id="el3kxxp6w5fno"></path></g><path d="M243.14,233.46h0l-37.41-1.22a1.64,1.64,0,0,1-1.2-.57,2,2,0,0,1-.46-1.49l3.08-32.65a1.9,1.9,0,0,1,.72-1.33,1.64,1.64,0,0,1,1.29-.27l36.71,8a1.68,1.68,0,0,1,1,1.85l-2.4,26.09A1.58,1.58,0,0,1,243.14,233.46Zm-34.37-37.37a1.34,1.34,0,0,0-.81.27,1.66,1.66,0,0,0-.64,1.19l-3.09,32.65a1.84,1.84,0,0,0,.41,1.34,1.46,1.46,0,0,0,1.06.5h0l37.41,1.23h0c.56,0,1.07-.62,1.14-1.39l2.4-26.09a1.46,1.46,0,0,0-.89-1.64l-36.7-8A1.17,1.17,0,0,0,208.77,196.09Z" style="fill: rgb(255, 255, 255); transform-origin: 225.479px 214.677px;" id="eljmbxdmcrcob" class="animable"></path><path d="M227.69,222.56l-.38,0a4.47,4.47,0,0,1-3-1.68,6.66,6.66,0,0,1-1.39-4.85,6.26,6.26,0,0,1,2.25-4.4,4.26,4.26,0,0,1,3.29-.89,4.62,4.62,0,0,1,3.11,2.09.09.09,0,0,1,0,.13.09.09,0,0,1-.13,0,4.5,4.5,0,0,0-3-2,4.06,4.06,0,0,0-3.14.86,6.07,6.07,0,0,0-2.18,4.25,6.5,6.5,0,0,0,1.35,4.72,4.39,4.39,0,0,0,2.91,1.61,4.18,4.18,0,0,0,3.28-1.23.1.1,0,0,1,.14,0,.11.11,0,0,1,0,.14A4.36,4.36,0,0,1,227.69,222.56Z" style="fill: rgb(255, 255, 255); transform-origin: 227.239px 216.627px;" id="el17i17a0fnyr" class="animable"></path><path d="M230.67,221.29a.12.12,0,0,1-.08,0,6.69,6.69,0,0,1-1.09-4.42,6.29,6.29,0,0,1,1.88-4,.1.1,0,0,1,.14.15,6,6,0,0,0-1.83,3.91,6.52,6.52,0,0,0,1.06,4.28.09.09,0,0,1,0,.14Z" style="fill: rgb(255, 255, 255); transform-origin: 230.507px 217.096px;" id="elnqqk10yvclr" class="animable"></path><path d="M235.82,161.8c1.37,5.27,2.56,10.53,3.62,15.87.53,2.67,1,5.34,1.47,8.05.23,1.35.46,2.71.65,4.09l.28,2.08L242,193l.07.53.06.64a38.75,38.75,0,0,1-.46,9.22,78.44,78.44,0,0,1-1.8,8.34,106.57,106.57,0,0,1-5.59,15.67l-5.6-1.81c1-5.16,1.81-10.45,2.46-15.59.32-2.57.55-5.13.67-7.62a33,33,0,0,0-.29-6.89l-.06-.36-.1-.46-.19-.94-.42-1.89-.89-3.84L228,180.2c-1.26-5.17-2.51-10.4-3.68-15.59Z" style="fill: rgb(228, 137, 123); transform-origin: 233.272px 194.6px;" id="elae1pql7ajn" class="animable"></path><path d="M234.52,223.11l-4.8.67-3.86,6.33-1.7,4.83,7.67-.38,1.84-2.93S237.08,227.29,234.52,223.11Z" style="fill: rgb(228, 137, 123); transform-origin: 229.816px 229.025px;" id="elltt5jaicm4n" class="animable"></path><path d="M228.46,152.89c8,1.42,16.75,31.25,16.75,31.25l-18.47,6.31s-6.16-14.81-5-24C222.84,157.37,220.87,151.54,228.46,152.89Z" style="fill: #035397; transform-origin: 233.402px 171.573px;" id="elbdhg21wbj8" class="animable"></path><g id="elutwu04302jf"><path d="M228.46,152.89c8,1.42,16.75,31.25,16.75,31.25l-18.47,6.31s-6.16-14.81-5-24C222.84,157.37,220.87,151.54,228.46,152.89Z" style="opacity: 0.3; transform-origin: 233.402px 171.573px;" class="animable" id="eldwe1zcf1njn"></path></g></g><g id="freepik--character-1--inject-2" class="animable" style="transform-origin: 307.146px 269.135px;"><path d="M317.06,141.68c-3.43-1.32-12.37-4.51-6.88-15.28s18.87,3.93,23.42-1C333,131.65,327.65,145.75,317.06,141.68Z" style="fill: rgb(38, 50, 56); transform-origin: 321.019px 132.38px;" id="el25m9k6ntdpo" class="animable"></path><path d="M310.92,142.06c-4.06-2.05-5-4-5.27-4.88a.76.76,0,0,1,.17-.71c.76-.86,3.15-3.21,5.2-1.19s4,2.23.88,6.53A.78.78,0,0,1,310.92,142.06Z" style="fill: #035397; transform-origin: 309.578px 138.311px;" id="elaq0qry013k" class="animable"></path><g id="elfzp6csww2cj"><path d="M310.92,142.06c-4.06-2.05-5-4-5.27-4.88a.76.76,0,0,1,.17-.71c.76-.86,3.15-3.21,5.2-1.19s4,2.23.88,6.53A.78.78,0,0,1,310.92,142.06Z" style="opacity: 0.3; transform-origin: 309.578px 138.311px;" class="animable" id="elutehrqu9inc"></path></g><path d="M304.59,177.39a103.54,103.54,0,0,0-14.85,0c3.35-3.19,2.41-12.38,1.47-17.16l6.31,5.39,2.81,2.4a15.28,15.28,0,0,0-.46,2.59C299.62,173.56,300.48,176.4,304.59,177.39Z" style="fill: rgb(228, 137, 123); transform-origin: 297.165px 168.81px;" id="elrk5k24211vq" class="animable"></path><path d="M320.82,188.32c.17,1.82.38,3.82.63,5.73s.55,3.87.87,5.79a109.44,109.44,0,0,0,2.5,11.34c.53,1.84,1.1,3.66,1.76,5.43l.87,2.26a2.73,2.73,0,0,0,.62.94,2.53,2.53,0,0,0,1.28.5,8.22,8.22,0,0,0,2.19-.06,23,23,0,0,0,5.09-1.51l2.33,3.35a20,20,0,0,1-2.7,2.07,17.27,17.27,0,0,1-3.08,1.62,13,13,0,0,1-3.76.92,8.73,8.73,0,0,1-8.22-4,11.14,11.14,0,0,1-1-1.76l-.66-1.47c-.87-2-1.61-4-2.27-6a93.41,93.41,0,0,1-3.09-12.19c-.41-2-.73-4.1-1-6.16s-.5-4.09-.63-6.3Z" style="fill: rgb(228, 137, 123); transform-origin: 325.755px 207.531px;" id="elbjtssw6o6c7" class="animable"></path><path d="M318.21,179c3.32.84,5.64,14.5,5.64,14.5l-9.15,6.22s-8.77-13.78-6.22-17.42C311.14,178.51,313.36,177.79,318.21,179Z" style="fill: #035397; transform-origin: 315.933px 189.091px;" id="elep0620tmb8s" class="animable"></path><g id="el3f4w0mz5nrv"><path d="M318.21,179c3.32.84,5.64,14.5,5.64,14.5l-9.15,6.22s-8.77-13.78-6.22-17.42C311.14,178.51,313.36,177.79,318.21,179Z" style="opacity: 0.7; transform-origin: 315.933px 189.091px;" class="animable" id="elmfk0uvuhd4"></path></g><polygon points="351.96 203.07 338.39 200.9 337.7 203.7 330.94 218.35 344.51 220.52 351.27 205.87 351.96 203.07" style="fill: rgb(38, 50, 56); transform-origin: 341.45px 210.71px;" id="elyshc3d8opm" class="animable"></polygon><polygon points="352.73 203.2 339.16 201.03 338.47 203.82 331.71 218.48 345.28 220.65 352.04 205.99 352.73 203.2" style="fill: #035397; transform-origin: 342.22px 210.84px;" id="el25rx9fu4wgw" class="animable"></polygon><path d="M338.62,222.29l6.41-5-8-1.68s-3.37,3.92-2.16,7Z" style="fill: rgb(228, 137, 123); transform-origin: 339.819px 219.11px;" id="eldn4ntfn241" class="animable"></path><polygon points="346.66 210.71 339.87 209.66 337.01 215.6 345.03 217.28 346.66 210.71" style="fill: rgb(228, 137, 123); transform-origin: 341.835px 213.47px;" id="elhrj8mz3igl" class="animable"></polygon><path d="M318.21,179s3.83,1.35-3.85,48.61H281.65c.55-13.32.56-21.52-5.8-48.84A96.59,96.59,0,0,1,289.74,177a103.55,103.55,0,0,1,14.85,0C311,177.54,318.21,179,318.21,179Z" style="fill: #035397; transform-origin: 297.507px 202.172px;" id="elcwwvfhmou4l" class="animable"></path><g id="eljzrs8ti0pm"><path d="M318.21,179s3.83,1.35-3.85,48.61H281.65c.55-13.32.56-21.52-5.8-48.84A96.59,96.59,0,0,1,289.74,177a103.55,103.55,0,0,1,14.85,0C311,177.54,318.21,179,318.21,179Z" style="opacity: 0.7; transform-origin: 297.507px 202.172px;" class="animable" id="elrl2ahmpxr2i"></path></g><polygon points="299.98 408.92 308.03 408.92 309.11 390.27 301.06 390.27 299.98 408.92" style="fill: rgb(228, 137, 123); transform-origin: 304.545px 399.595px;" id="elfvj95odzp5a" class="animable"></polygon><polygon points="263.34 408.92 271.39 408.92 274.85 390.27 266.8 390.27 263.34 408.92" style="fill: rgb(228, 137, 123); transform-origin: 269.095px 399.595px;" id="el9q6lf3om8n" class="animable"></polygon><path d="M272.21,408h-9a.64.64,0,0,0-.64.55l-1,7.16a1.29,1.29,0,0,0,1.29,1.43c3.15-.05,4.67-.24,8.65-.24,2.45,0,6,.26,9.41.26s3.56-3.35,2.15-3.65c-6.31-1.36-7.31-3.23-9.43-5A2.14,2.14,0,0,0,272.21,408Z" style="fill: rgb(38, 50, 56); transform-origin: 272.735px 412.58px;" id="el1ejax0qbmo" class="animable"></path><path d="M308.58,408h-9.05a.63.63,0,0,0-.64.55l-1,7.16a1.29,1.29,0,0,0,1.29,1.43c3.15-.05,4.67-.24,8.65-.24,2.45,0,7.51.26,10.89.26s3.56-3.35,2.16-3.65c-6.32-1.36-8.8-3.23-10.93-5A2.09,2.09,0,0,0,308.58,408Z" style="fill: rgb(38, 50, 56); transform-origin: 309.793px 412.58px;" id="elabzykd8y9y" class="animable"></path><polygon points="309.11 390.28 308.55 399.89 300.5 399.89 301.06 390.28 309.11 390.28" style="fill: rgb(206, 111, 100); transform-origin: 304.805px 395.085px;" id="elut8rxnd8z7q" class="animable"></polygon><polygon points="266.8 390.28 274.85 390.28 273.07 399.89 265.01 399.89 266.8 390.28" style="fill: rgb(206, 111, 100); transform-origin: 269.93px 395.085px;" id="eli5onboqnjm" class="animable"></polygon><path d="M291.15,174.54a6.78,6.78,0,0,0-2.71,2.25c.79,1.29,6.88,3.7,8.53,3.55a5.64,5.64,0,0,1,1.13-3.65S293.86,176.55,291.15,174.54Z" style="fill: #035397; transform-origin: 293.27px 177.443px;" id="elmx5vk4jmy8" class="animable"></path><path d="M301,174.75a10.82,10.82,0,0,1,3,1.94c-.34,1.1-3,3.1-4.16,3.54a6.93,6.93,0,0,0-1.77-3.54A7.79,7.79,0,0,0,301,174.75Z" style="fill: #035397; transform-origin: 301.035px 177.49px;" id="elh02xkg2msdv" class="animable"></path><path d="M314.36,227.63s6.35,62,5.82,86.59c-.55,25.55-9.91,83.81-9.91,83.81H299.38s1.73-56.77.76-81.86c-1.05-27.35-9.73-88.54-9.73-88.54Z" style="fill: #035397; transform-origin: 305.311px 312.83px;" id="el6heykwpuk2" class="animable"></path><path d="M305.72,227.63s-4.67,55.27-9.52,86.42c-3.92,25.16-21.29,84-21.29,84h-11s9.06-56.8,11-81.69c5-63-3.79-74.12,6.69-88.71Z" style="fill: #035397; transform-origin: 284.815px 312.84px;" id="elvzelzfv739d" class="animable"></path><g id="elo6dg4oa1f2o"><rect x="294.74" y="190.51" width="11.75" height="11.57" rx="3.69" style="fill: #035397; opacity: 0.57; transform-origin: 300.615px 196.295px; transform: rotate(-177.98deg);" class="animable" id="elgpqu0uvdfn"></rect></g><path d="M300.33,168a15.28,15.28,0,0,0-.46,2.59c-2.19-.38-5.06-2.55-5.28-4.62a6.51,6.51,0,0,1,.12-2.58l2.81,2.21Z" style="fill: rgb(206, 111, 100); transform-origin: 297.422px 166.99px;" id="elc5zugcrk2qq" class="animable"></path><path d="M288.62,149.36c.49,8,.53,11.36,4.56,15.46,6.06,6.16,15.75,3.81,17.65-4.15,1.72-7.17.63-19-7.18-22.19A10.9,10.9,0,0,0,288.62,149.36Z" style="fill: rgb(228, 137, 123); transform-origin: 300.062px 152.986px;" id="el8bp4tynjze6" class="animable"></path><path d="M287.37,152.78a.2.2,0,0,1-.11,0,.24.24,0,0,1-.12-.33c1-2.06,9.07-3.47,10-3.63a34.11,34.11,0,0,1,7.9-.2,2.33,2.33,0,0,1,2,0,23.29,23.29,0,0,1,5.14,0,.24.24,0,0,1,.22.28.25.25,0,0,1-.28.21,23.31,23.31,0,0,0-5.09,0,.29.29,0,0,1-.13,0,1.77,1.77,0,0,0-1.64,0,.22.22,0,0,1-.17,0,32.53,32.53,0,0,0-7.85.2c-2.41.41-8.86,1.8-9.61,3.35A.24.24,0,0,1,287.37,152.78Z" style="fill: rgb(38, 50, 56); transform-origin: 299.759px 150.591px;" id="elrpbf4zsrucg" class="animable"></path><path d="M301.05,155.35h-.24a3.46,3.46,0,0,1-2.66-1.27c-1.44-1.83-.87-4.92-.85-5a.12.12,0,0,1,.15-.1.12.12,0,0,1,.1.14s-.57,3.12.8,4.86a3.19,3.19,0,0,0,2.48,1.17,3.06,3.06,0,0,0,2.48-.89c1.69-1.71,1.47-5.31,1.47-5.35a.12.12,0,0,1,.11-.13h0a.13.13,0,0,1,.13.12c0,.15.22,3.75-1.54,5.54A3.32,3.32,0,0,1,301.05,155.35Z" style="fill: rgb(38, 50, 56); transform-origin: 301.1px 152.067px;" id="elihdopb4q118" class="animable"></path><path d="M309.92,155.17a2.68,2.68,0,0,1-2.06-.85c-1.52-1.67-1-5.15-1-5.3a.11.11,0,0,1,.14-.1.12.12,0,0,1,.1.14s-.52,3.51.91,5.09a2.5,2.5,0,0,0,2.1.77,1.73,1.73,0,0,0,1.33-.7c1.19-1.58.35-5.31.34-5.35a.14.14,0,0,1,.1-.15.12.12,0,0,1,.15.1c0,.16.87,3.88-.39,5.55a2,2,0,0,1-1.52.8Z" style="fill: rgb(38, 50, 56); transform-origin: 309.548px 151.944px;" id="el0lxlwutpsst" class="animable"></path><path d="M287.37,153.58c12.33-2.5,17.54-13.75,17.54-13.75s-1.57-5-8.77-4.33C290.41,136.05,278.84,146.08,287.37,153.58Z" style="fill: rgb(38, 50, 56); transform-origin: 294.623px 144.509px;" id="elixftoidb9xr" class="animable"></path><path d="M282.46,141.8c3.9-1.25,14-4.24,7.2-16.05s-21.56,3.32-27-2.18C263.67,130.29,270.46,145.65,282.46,141.8Z" style="fill: rgb(38, 50, 56); transform-origin: 277.308px 131.76px;" id="elw64jmx41pk" class="animable"></path><path d="M310.91,148.51c-4.64-9.7-12.6-10.43-12.6-10.43s4.47-3.91,10.6-.11C313.3,140.7,312.62,145.4,310.91,148.51Z" style="fill: rgb(38, 50, 56); transform-origin: 305.267px 142.41px;" id="el8vv4p99g1ud" class="animable"></path><path d="M286.69,153.79a5.84,5.84,0,0,0,2.14,3.92c1.6,1.27,3.19,0,3.41-1.9.2-1.74-.4-4.49-2.33-5A2.62,2.62,0,0,0,286.69,153.79Z" style="fill: rgb(228, 137, 123); transform-origin: 289.465px 154.476px;" id="elkhpoztqpbj" class="animable"></path><ellipse cx="300.67" cy="151.59" rx="0.77" ry="1.18" style="fill: rgb(38, 50, 56); transform-origin: 300.67px 151.59px;" id="elc1hr8ucvf25" class="animable"></ellipse><ellipse cx="308.14" cy="151.59" rx="0.77" ry="1.18" style="fill: rgb(38, 50, 56); transform-origin: 308.14px 151.59px;" id="el3erwu3wb648" class="animable"></ellipse><path d="M308,150.45l1.56-.45S308.71,151.22,308,150.45Z" style="fill: rgb(38, 50, 56); transform-origin: 308.78px 150.352px;" id="el10ofvfjfettq" class="animable"></path><path d="M306.12,152.7a17.57,17.57,0,0,0,2.32,4.15,2.8,2.8,0,0,1-2.32.43Z" style="fill: rgb(222, 87, 83); transform-origin: 307.28px 155.034px;" id="el8en8tbkfsao" class="animable"></path><path d="M303.84,159.84a5.46,5.46,0,0,1-4.52-2.18.2.2,0,0,1,.06-.27.19.19,0,0,1,.26.06,5.19,5.19,0,0,0,4.2,2,.2.2,0,0,1,.19.19A.19.19,0,0,1,303.84,159.84Z" style="fill: rgb(38, 50, 56); transform-origin: 301.661px 158.602px;" id="elqhdegzhtv7e" class="animable"></path><path d="M298.87,146.17a.38.38,0,0,1-.2-.7,5.2,5.2,0,0,1,4.48-.36.38.38,0,0,1,.21.5.39.39,0,0,1-.5.2,4.52,4.52,0,0,0-3.79.31A.37.37,0,0,1,298.87,146.17Z" style="fill: rgb(38, 50, 56); transform-origin: 300.942px 145.467px;" id="elqf39vtc3nx" class="animable"></path><path d="M309.69,145.78a.39.39,0,0,1-.21-.06,3,3,0,0,0-2.73-.34.38.38,0,0,1-.32-.7,3.78,3.78,0,0,1,3.46.4.38.38,0,0,1,.12.52A.37.37,0,0,1,309.69,145.78Z" style="fill: rgb(38, 50, 56); transform-origin: 308.136px 145.106px;" id="el3ko5pfcxgwe" class="animable"></path><path d="M275,409.4a10.09,10.09,0,0,1-2.13-.28.2.2,0,0,1-.15-.16.19.19,0,0,1,.08-.2c.28-.19,2.74-1.77,3.67-1.34a.68.68,0,0,1,.39.54,1.1,1.1,0,0,1-.32,1A2.29,2.29,0,0,1,275,409.4Zm-1.57-.57c1.39.28,2.43.23,2.84-.14a.72.72,0,0,0,.19-.67.27.27,0,0,0-.15-.24C275.79,407.56,274.39,408.23,273.4,408.83Z" style="fill: #035397; transform-origin: 274.797px 408.377px;" id="el7fhwixl4ib5" class="animable"></path><path d="M272.88,409.12a.19.19,0,0,1-.1,0,.19.19,0,0,1-.09-.17c0-.1,0-2.42.88-3.2a1,1,0,0,1,.82-.25.68.68,0,0,1,.65.54c.18.91-1.29,2.65-2.06,3.08A.17.17,0,0,1,272.88,409.12Zm1.37-3.26a.59.59,0,0,0-.41.16,4.34,4.34,0,0,0-.75,2.51c.77-.61,1.67-1.9,1.56-2.45,0-.08-.07-.19-.31-.22Z" style="fill: #035397; transform-origin: 273.872px 407.308px;" id="elp2q6gt5nxel" class="animable"></path><path d="M311.6,409.4a14.16,14.16,0,0,1-2.53-.28.2.2,0,0,1-.06-.37c.37-.19,3.58-1.83,4.57-1.29a.62.62,0,0,1,.33.51,1.11,1.11,0,0,1-.35.94A3.07,3.07,0,0,1,311.6,409.4Zm-1.87-.57c1.77.3,3.08.22,3.56-.22a.68.68,0,0,0,.22-.6.22.22,0,0,0-.12-.2C312.86,407.51,311,408.21,309.73,408.83Z" style="fill: #035397; transform-origin: 311.413px 408.382px;" id="elivatr4s7oib" class="animable"></path><path d="M309.1,409.12a.15.15,0,0,1-.11,0,.17.17,0,0,1-.08-.17c0-.1.19-2.27,1.21-3.11a1.38,1.38,0,0,1,1.06-.33c.56,0,.69.36.72.54.15.93-1.73,2.65-2.71,3.09Zm1.92-3.26a1,1,0,0,0-.65.24,4.34,4.34,0,0,0-1,2.47c1-.6,2.25-1.95,2.16-2.49,0-.05,0-.18-.37-.22Z" style="fill: #035397; transform-origin: 310.408px 407.321px;" id="elh0dn6wa5y8" class="animable"></path><path d="M300.48,150.45,302,150S301.24,151.22,300.48,150.45Z" style="fill: rgb(38, 50, 56); transform-origin: 301.24px 150.352px;" id="eloktffbbdhb" class="animable"></path><polygon points="275.37 398.29 263.08 398.29 263.19 391.13 277.75 391.29 275.37 398.29" style="fill: #035397; transform-origin: 270.415px 394.71px;" id="elo4bicg4yhy" class="animable"></polygon><g id="eljwoihzpkzrn"><polygon points="275.37 398.29 263.08 398.29 263.19 391.13 277.75 391.29 275.37 398.29" style="fill: rgb(255, 255, 255); opacity: 0.7; transform-origin: 270.415px 394.71px;" class="animable" id="ele17lg0d3ej"></polygon></g><polygon points="311.71 398.29 298.39 398.29 298.49 391.13 312.58 391.29 311.71 398.29" style="fill: #035397; transform-origin: 305.485px 394.71px;" id="elzfatx0berqk" class="animable"></polygon><g id="elglkyawmxmcu"><polygon points="311.71 398.29 298.39 398.29 298.49 391.13 312.58 391.29 311.71 398.29" style="fill: rgb(255, 255, 255); opacity: 0.7; transform-origin: 305.485px 394.71px;" class="animable" id="el5l74c3l1mbu"></polygon></g><path d="M281.29,226l-1.47,2.93c-.12.22.15.45.53.45h34.3c.29,0,.54-.14.56-.33l.29-2.92c0-.21-.23-.38-.56-.38H281.82A.58.58,0,0,0,281.29,226Z" style="fill: #035397; transform-origin: 297.646px 227.564px;" id="el5zqqhkhgqii" class="animable"></path><g id="elmgr0q58ru4n"><path d="M281.29,226l-1.47,2.93c-.12.22.15.45.53.45h34.3c.29,0,.54-.14.56-.33l.29-2.92c0-.21-.23-.38-.56-.38H281.82A.58.58,0,0,0,281.29,226Z" style="fill: rgb(255, 255, 255); opacity: 0.6; transform-origin: 297.646px 227.564px;" class="animable" id="el4dooyr2ysl"></path></g><path d="M284.34,229.41h-.89c-.18,0-.31-.09-.3-.2l.42-3.81c0-.11.16-.2.34-.2h.89c.17,0,.31.09.3.2l-.42,3.81C284.67,229.32,284.51,229.41,284.34,229.41Z" style="fill: #035397; transform-origin: 284.125px 227.305px;" id="elvxeadg3gwi" class="animable"></path><path d="M313,229.41h-.89c-.17,0-.31-.09-.3-.2l.42-3.81c0-.11.17-.2.34-.2h.89c.18,0,.31.09.3.2l-.42,3.81C313.33,229.32,313.18,229.41,313,229.41Z" style="fill: #035397; transform-origin: 312.785px 227.305px;" id="eldip1ftbymg9" class="animable"></path><path d="M301.41,229.41h-.88c-.18,0-.31-.09-.3-.2l.41-3.81c0-.11.17-.2.35-.2h.89c.17,0,.31.09.29.2l-.41,3.81C301.75,229.32,301.59,229.41,301.41,229.41Z" style="fill: #035397; transform-origin: 301.201px 227.305px;" id="el6ae59frm6b" class="animable"></path><path d="M287.8,224h1.45a.78.78,0,0,0,.76-.67h0a.59.59,0,0,0-.59-.68H288a.78.78,0,0,0-.76.68h0A.58.58,0,0,0,287.8,224Z" style="fill: rgb(224, 224, 224); transform-origin: 288.625px 223.325px;" id="el58kebd4rtv5" class="animable"></path><path d="M289.2,225.76l.23-1.9a.76.76,0,0,0-.78-.88h0a1,1,0,0,0-1,.88l-.23,1.9a.76.76,0,0,0,.78.88h0A1,1,0,0,0,289.2,225.76Z" style="fill: rgb(224, 224, 224); transform-origin: 288.425px 224.81px;" id="el1pomrpy1boh" class="animable"></path><path d="M308.54,224H310a.77.77,0,0,0,.75-.67h0a.59.59,0,0,0-.59-.68H308.7a.8.8,0,0,0-.76.68h0A.59.59,0,0,0,308.54,224Z" style="fill: rgb(224, 224, 224); transform-origin: 309.346px 223.325px;" id="eluja8ucr9dfo" class="animable"></path><path d="M309.93,225.76l.23-1.9a.76.76,0,0,0-.78-.88h0a1,1,0,0,0-1,.88l-.23,1.9a.77.77,0,0,0,.78.88h0A1,1,0,0,0,309.93,225.76Z" style="fill: rgb(224, 224, 224); transform-origin: 309.156px 224.81px;" id="el6437wr21uts" class="animable"></path><path d="M283.25,177l1.63-.16a.54.54,0,0,1,.56.39c6.79,22.56,4.2,46.14,4.2,46.14h-2.09c1.58-28.06-3.89-42.71-4.75-45.72A.52.52,0,0,1,283.25,177Z" style="fill: #035397; transform-origin: 286.454px 200.104px;" id="elnr5io7upza" class="animable"></path><g id="elyytocstb0c"><path d="M283.25,177l1.63-.16a.54.54,0,0,1,.56.39c6.79,22.56,4.2,46.14,4.2,46.14h-2.09c1.58-28.06-3.89-42.71-4.75-45.72A.52.52,0,0,1,283.25,177Z" style="fill: rgb(255, 255, 255); opacity: 0.6; transform-origin: 286.454px 200.104px;" class="animable" id="elvjc3isyywhp"></path></g><path d="M308.34,176.91l1.43.2a.55.55,0,0,1,.44.45c4.06,17.52.17,45.76.17,45.76h-2.1c2.66-30.65-.06-43-.52-45.82A.52.52,0,0,1,308.34,176.91Z" style="fill: #035397; transform-origin: 309.907px 200.113px;" id="elno1qgg1p4dk" class="animable"></path><g id="elfsym3bz506h"><path d="M308.34,176.91l1.43.2a.55.55,0,0,1,.44.45c4.06,17.52.17,45.76.17,45.76h-2.1c2.66-30.65-.06-43-.52-45.82A.52.52,0,0,1,308.34,176.91Z" style="fill: rgb(255, 255, 255); opacity: 0.6; transform-origin: 309.907px 200.113px;" class="animable" id="elyiwi70qjlw"></path></g><path d="M280.25,188.62c0,2.25.07,4.65.2,7s.23,4.67.47,7,.54,4.56,1,6.74c.22,1.08.47,2.14.76,3.14q.23.75.48,1.44l.23.58a.07.07,0,0,0,0,.06c0,.09.38.41,1.13.63a10.75,10.75,0,0,0,2.73.36,37.2,37.2,0,0,0,6.59-.54c2.27-.35,4.57-.84,6.85-1.4s4.61-1.18,6.85-1.82l1.54,3.77A77.54,77.54,0,0,1,295.14,221a38,38,0,0,1-7.76,1.39,17.78,17.78,0,0,1-4.47-.25,10.7,10.7,0,0,1-2.55-.84,8,8,0,0,1-2.58-1.93,7.49,7.49,0,0,1-1-1.43c-.16-.29-.2-.39-.29-.57l-.24-.49c-.29-.66-.56-1.31-.8-2a35.89,35.89,0,0,1-1.18-3.84,63.52,63.52,0,0,1-1.41-7.54,101.51,101.51,0,0,1-.85-15Z" style="fill: rgb(228, 137, 123); transform-origin: 290.537px 205.467px;" id="el5qlzzws6nmt" class="animable"></path><path d="M305.77,212.83l2.53-7.73,4.31,7s-2.53,4.51-5.88,4.44Z" style="fill: rgb(228, 137, 123); transform-origin: 309.19px 210.82px;" id="elnzmps70ewdo" class="animable"></path><polygon points="313.92 201.33 317.22 207.35 312.61 212.06 308.3 205.1 313.92 201.33" style="fill: rgb(228, 137, 123); transform-origin: 312.76px 206.695px;" id="eln3zxzh6xtq" class="animable"></polygon><path d="M275.85,178.79c-3.28,1-7.21,12.28-7.21,12.28l12.71,9.09s4.64-9.42,3.26-13.66C283.18,182.09,279.59,177.65,275.85,178.79Z" style="fill: #035397; transform-origin: 276.753px 189.384px;" id="elcfzaoytxgrg" class="animable"></path><g id="eldas2ru86lj9"><path d="M275.85,178.79c-3.28,1-7.21,12.28-7.21,12.28l12.71,9.09s4.64-9.42,3.26-13.66C283.18,182.09,279.59,177.65,275.85,178.79Z" style="opacity: 0.7; transform-origin: 276.753px 189.384px;" class="animable" id="eln2mvwhyvsr"></path></g><path d="M288.8,141.75c4.45-1.67,5.7-3.63,6-4.48a.8.8,0,0,0-.1-.76c-.69-1-2.91-3.7-5.27-1.83s-4.38,1.87-1.67,6.7A.82.82,0,0,0,288.8,141.75Z" style="fill: #035397; transform-origin: 290.659px 137.925px;" id="elxj9rhfo4tk8" class="animable"></path><g id="eldcbuao5aa3"><path d="M288.8,141.75c4.45-1.67,5.7-3.63,6-4.48a.8.8,0,0,0-.1-.76c-.69-1-2.91-3.7-5.27-1.83s-4.38,1.87-1.67,6.7A.82.82,0,0,0,288.8,141.75Z" style="opacity: 0.3; transform-origin: 290.659px 137.925px;" class="animable" id="el7kbd4og47vw"></path></g></g><defs>     <filter id="active" height="200%">         <feMorphology in="SourceAlpha" result="DILATED" operator="dilate" radius="2"></feMorphology>                <feFlood flood-color="#32DFEC" flood-opacity="1" result="PINK"></feFlood>        <feComposite in="PINK" in2="DILATED" operator="in" result="OUTLINE"></feComposite>        <feMerge>            <feMergeNode in="OUTLINE"></feMergeNode>            <feMergeNode in="SourceGraphic"></feMergeNode>        </feMerge>    </filter>    <filter id="hover" height="200%">        <feMorphology in="SourceAlpha" result="DILATED" operator="dilate" radius="2"></feMorphology>                <feFlood flood-color="#ff0000" flood-opacity="0.5" result="PINK"></feFlood>        <feComposite in="PINK" in2="DILATED" operator="in" result="OUTLINE"></feComposite>        <feMerge>            <feMergeNode in="OUTLINE"></feMergeNode>            <feMergeNode in="SourceGraphic"></feMergeNode>        </feMerge>            <feColorMatrix type="matrix" values="0   0   0   0   0                0   1   0   0   0                0   0   0   0   0                0   0   0   1   0 "></feColorMatrix>    </filter></defs></svg>