<?xml version="1.0" encoding="utf-8"?>

<!DOCTYPE svg PUBLIC "-//W3C//DTD SVG 1.1//EN" "http://www.w3.org/Graphics/SVG/1.1/DTD/svg11.dtd">
<svg version="1.1" id="Layer_1" xmlns="http://www.w3.org/2000/svg" xmlns:xlink="http://www.w3.org/1999/xlink" x="0px" y="0px"
	 viewBox="0 0 2194.343 1677.752" style="enable-background:new 0 0 2194.343 1677.752;" xml:space="preserve">
<style type="text/css">
	.st0{opacity:0.98;fill:#D1D0D0;stroke:#D1D0D0;stroke-width:0.5;enable-background:new    ;}
	.st1{fill:#363435;stroke:#363435;stroke-width:0.5;}
	.st2{opacity:0.57;fill:#3E3C3D;stroke:#3E3C3D;stroke-width:0.5;enable-background:new    ;}
	.st3{opacity:0.56;fill:#414041;stroke:#414041;stroke-width:0.5;enable-background:new    ;}
	.st4{fill:#FEFEFE;stroke:#FEFEFE;stroke-width:0.5;}
	.st5{opacity:0.45;fill:#383838;stroke:#383838;stroke-width:0.5;enable-background:new    ;}
	.st6{fill:#D2D3D5;stroke:#D2D3D5;stroke-width:0.5;}
	.st7{opacity:0.6;fill:#424141;stroke:#424141;stroke-width:0.5;enable-background:new    ;}
	.st8{opacity:0.54;fill:#3D3C3C;stroke:#3D3C3C;stroke-width:0.5;enable-background:new    ;}
	.st9{opacity:0.56;fill:#3D3C3D;stroke:#3D3C3D;stroke-width:0.5;enable-background:new    ;}
	.st10{opacity:0.62;fill:#313031;stroke:#313031;stroke-width:0.5;enable-background:new    ;}
	.st11{opacity:0.47;fill:#333233;stroke:#333233;stroke-width:0.5;enable-background:new    ;}
	.st12{opacity:0.69;fill:#414041;stroke:#414041;stroke-width:0.5;enable-background:new    ;}
	.st13{opacity:0.58;fill:#403F3F;stroke:#403F3F;stroke-width:0.5;enable-background:new    ;}
	.st14{opacity:0.58;fill:#3E3D3E;stroke:#3E3D3E;stroke-width:0.5;enable-background:new    ;}
	.st15{fill:#4B4B4D;stroke:#4B4B4D;stroke-width:0.5;}
	.st16{fill:#BEBFC1;stroke:#BEBFC1;stroke-width:0.5;}
	.st17{opacity:0.53;fill:#3D3C3D;stroke:#3D3C3D;stroke-width:0.5;enable-background:new    ;}
	.st18{opacity:0.49;fill:#383738;stroke:#383738;stroke-width:0.5;enable-background:new    ;}
	.st19{opacity:0.51;fill:#393838;stroke:#393838;stroke-width:0.5;enable-background:new    ;}
	.st20{fill:#858688;stroke:#858688;stroke-width:0.5;}
	.st21{fill:#242425;stroke:#242425;stroke-width:0.5;}
	.st22{fill:#292828;stroke:#292828;stroke-width:0.5;}
	.st23{opacity:0.31;fill:#232323;stroke:#232323;stroke-width:0.5;enable-background:new    ;}
	.st24{fill:#F7ACB0;stroke:#F7ACB0;stroke-width:0.5;}
	.st25{fill:#4B4A4C;stroke:#4B4A4C;stroke-width:0.5;}
	.st26{opacity:0.62;fill:#3B3A3B;stroke:#3B3A3B;stroke-width:0.5;enable-background:new    ;}
	.st27{opacity:0.69;fill:#3E3D3E;stroke:#3E3D3E;stroke-width:0.5;enable-background:new    ;}
	.st28{fill:#353334;stroke:#353334;stroke-width:0.5;}
	.st29{fill:#363536;stroke:#363536;stroke-width:0.5;}
	.st30{opacity:0.45;fill:#383738;stroke:#383738;stroke-width:0.5;enable-background:new    ;}
	.st31{fill:#373536;stroke:#373536;stroke-width:0.5;}
	.st32{opacity:0.56;fill:#393939;stroke:#393939;stroke-width:0.5;enable-background:new    ;}
	.st33{opacity:0.66;fill:#2F2E2F;stroke:#2F2E2F;stroke-width:0.5;enable-background:new    ;}
	.st34{opacity:0.52;fill:#333232;stroke:#333232;stroke-width:0.5;enable-background:new    ;}
	.st35{opacity:0.46;fill:#3A3A3A;stroke:#3A3A3A;stroke-width:0.5;enable-background:new    ;}
	.st36{opacity:0.52;fill:#3C3B3C;stroke:#3C3B3C;stroke-width:0.5;enable-background:new    ;}
	.st37{opacity:0.58;fill:#3E3C3D;stroke:#3E3C3D;stroke-width:0.5;enable-background:new    ;}
	.st38{opacity:0.53;fill:#3B3A3B;stroke:#3B3A3B;stroke-width:0.5;enable-background:new    ;}
	.st39{opacity:0.55;fill:#363536;stroke:#363536;stroke-width:0.5;enable-background:new    ;}
	.st40{opacity:0.47;fill:#393839;stroke:#393839;stroke-width:0.5;enable-background:new    ;}
	.st41{opacity:0.47;fill:#3A393A;stroke:#3A393A;stroke-width:0.5;enable-background:new    ;}
	.st42{opacity:0.47;fill:#373737;stroke:#373737;stroke-width:0.5;enable-background:new    ;}
	.st43{opacity:0.55;fill:#404040;stroke:#404040;stroke-width:0.5;enable-background:new    ;}
	.st44{opacity:0.52;fill:#3B3A3A;stroke:#3B3A3A;stroke-width:0.5;enable-background:new    ;}
	.st45{opacity:0.52;fill:#3B3A3B;stroke:#3B3A3B;stroke-width:0.5;enable-background:new    ;}
	.st46{opacity:0.54;fill:#3C3B3C;stroke:#3C3B3C;stroke-width:0.5;enable-background:new    ;}
	.st47{opacity:0.62;fill:#404040;stroke:#404040;stroke-width:0.5;enable-background:new    ;}
	.st48{opacity:0.51;fill:#2B2A2B;stroke:#2B2A2B;stroke-width:0.5;enable-background:new    ;}
</style>
<g>
	<path class="st0" d="M1431.018,38.876h19.425l-0.96,1.167c-5.824,0.153-11.648,0.131-17.462,0.044L1431.018,38.876z"/>
	<path class="st1" d="M1432.022,40.086c5.813,0.087,11.637,0.109,17.462-0.044c9.565,0.971,19.239,0,28.804,1.254
		c14.636,0.709,29.23,2.247,43.768,4.079c1.56,1.342,3.697,1.571,5.639,0.873c14.975,1.767,29.699,5.192,44.553,7.776
		c0.807,1.243,1.92,1.669,3.337,1.298c0.534-0.109,1.625-0.316,2.16-0.414c0.578,1.461,1.691,1.92,3.327,1.374
		c83.785,19.174,162.825,57.303,231.482,108.837c1.832-3.185,3.37-6.522,4.832-9.892c16.076-35.686,45.361-65.832,81.865-80.589
		c9.86-4.046,20.221-6.653,30.626-8.845c1.92,0.753,4.112,0.589,5.802-0.709c0.774-0.12,2.323-0.338,3.097-0.447
		c8.834,0.207,17.691,0.109,26.536-0.033c1.276,0.153,2.574,0.305,3.905,0.469c1.592,1.32,3.741,1.483,5.682,0.742
		c14.811,3.207,29.786,7.067,42.994,14.757c10.557,4.864,19.763,12.085,28.673,19.457c8.769,7.253,16.033,16.076,23.188,24.878
		c5.246,6.708,9.565,14.07,13.415,21.65c6.206,10.601,9.979,22.359,13.677,34.007c7.438,26.449,8.234,54.642,3.119,81.592
		c-7.635,40.093-30.255,77.317-63.247,101.541c-5.944,4.733-12.924,7.853-19.119,12.194c4.014,7.373,9.521,13.786,13.546,21.159
		c11.517,17.898,21.77,36.57,31.4,55.536c20.406,41.74,36.908,85.41,48.96,130.29c12.564,46.146,20.788,93.382,26.1,140.903
		c-0.818,2.585-0.644,5.333,0.72,7.711c1.211,12.455,2.345,24.933,2.923,37.442c1.025,9.347,0.6,18.77,1.832,28.106
		c0.611,24.3,0.469,48.622,0.229,72.943c0.098,7.286-1.32,14.484-1.374,21.77c-1.156,16.371-2.607,32.731-4.799,49.003
		c-1.222,1.647-1.44,3.741-0.742,5.671c-2.159,15.269-4.625,30.484-7.766,45.59c-1.385,1.134-1.756,2.967-1.025,4.592
		c-3.261,14.68-6.849,29.306-10.863,43.801c-2.956,8.485-4.777,17.32-7.853,25.761c-10.688,32.196-23.656,63.673-39.46,93.709
		c-4.493,9.892-10.656,18.901-15.411,28.663c4.025,2.127,8.016,4.341,12.117,6.37c0.425,1.603,1.919,2.53,3.599,2.378
		c3.905,2.868,7.787,5.781,11.692,8.693c8.605,6.195,15.847,14.08,22.522,22.282c11.866,15.815,20.766,34.181,23.82,53.835
		c-0.796,1.865-0.6,4.035,0.829,5.584c0.076,0.436,0.218,1.298,0.294,1.734c0.098,11.528-0.174,23.068,0.12,34.607
		c-1.342,10.296-2.563,20.635-5.159,30.713c-3.523,17.712-9.816,34.672-16.698,51.305c-7.231,15.858-14.8,31.651-24.573,46.135
		c-11.19,18.52-24.856,35.359-38.773,51.861c-8.474,9.303-17.418,18.181-26.47,26.907c-7.569,7.449-16.404,13.448-24.071,20.777
		c-2.225-0.872-4.701,0.883-4.166,3.327c-20.374,15.182-41.903,28.924-64.927,39.733c-17.647,8.289-36.788,12.728-55.907,16.022
		c-8.911,0.087-17.68,1.898-26.579,2.138c-9.816,0.316-19.632,0.12-29.437,0.142c-8.125,0.033-16.174-1.363-24.289-1.156
		c-10.012-0.785-19.785-3.665-29.851-3.49c-6.271-3.217-13.415-3.686-20.101-5.606c-8.834-1.843-17.145-5.377-25.751-7.962
		c-10.885-3.85-21.715-8.027-31.662-13.939c-18.432-9.532-36.297-22.01-47.444-39.907c-4.09-6.304-6.326-13.644-7.526-20.995
		c-1.102-6.544,0.186-13.11,1.145-19.577c-13.502,3.185-26.765,7.362-40.365,10.219c-14.309,3.588-28.139,8.813-42.383,12.63
		c-1.461-0.589-2.607-0.229-3.425,1.091c-9.194,2.159-18.421,4.101-27.681,5.922c0.578,15.542-0.436,31.804-7.493,45.96
		c-2.999,6.424-7.209,12.292-12.335,17.2c-15.586,14.92-36.374,22.882-56.965,28.095c-1.451-0.643-2.618-0.316-3.501,0.982
		c-17.189,4.21-34.705,6.958-52.286,8.943c-2.585-0.698-5.29-0.513-7.646,0.764c-1.363,0.153-2.716,0.316-4.046,0.502
		c-11.757,0.109-23.438,1.876-35.185,2.149c-8.005,0.076-15.956,1.44-23.973,1.113c-6.948-0.295-13.819,0.851-20.744,1.069
		c-16.807,0.087-33.625-0.033-50.432-0.262c-12.248-1.058-24.551-1.647-36.755-3.25c-1.56-1.461-3.741-1.701-5.66-0.949
		c-0.753-0.055-2.258-0.185-3.01-0.24c-1.614-1.385-3.774-1.625-5.726-0.96c-0.458-0.055-1.374-0.164-1.843-0.218
		c-1.276-1.298-3.119-1.56-4.734-0.851c-16.273-3.534-32.676-7.155-47.891-14.135c-10.001-4.363-19.894-9.467-27.899-17.003
		c-7.133-5.301-12.63-12.379-17.603-19.654c-6.293-9.292-9.085-20.406-10.732-31.367c-3.49,0.436-6.38,2.465-9.227,4.352
		c-30.746,18.956-63.564,34.269-96.916,48.022c-32.883,12.673-66.661,23.155-101.301,29.753c-1.483-0.665-2.694-0.349-3.632,0.949
		c-0.48,0.033-1.429,0.098-1.898,0.12c-1.941-0.676-4.068-0.393-5.595,1.025c-15.662,2.476-31.422,4.494-47.269,5.159
		c-13.535,1.047-27.114,0.84-40.649,0.131c-16.894-0.927-33.712-2.858-50.443-5.333c-0.949-1.276-2.149-1.582-3.577-0.927
		c-0.753-0.054-2.247-0.142-2.988-0.196c-1.211-1.145-2.847-1.636-4.45-1.2c-4.886-0.251-9.511-1.985-14.288-2.814
		c-6.926-1.254-13.775-2.847-20.57-4.668c-0.916-1.287-2.083-1.603-3.501-0.927c-44.205-11.354-86.817-28.542-127.346-49.418
		c-35.795-18.999-70.369-40.507-102.031-65.876c-5.115-3.796-9.292-8.889-15.204-11.539c0.665,5.737,3.076,11.059,4.232,16.698
		c2.236,11.725,4.177,23.722,2.618,35.676c-1.211,1.658-1.385,3.785-0.622,5.715c-1.418,9.74-4.941,19.065-9.412,27.801
		c-5.115,8.747-10.885,17.396-19.076,23.58c-15.553,13.96-36.035,21.617-56.725,23.329c-14.931,1.941-29.96,0.218-44.913-0.502
		c-26.089-2.279-52.33-4.21-78.517-2.258c-11.888,0.327-23.798,0.48-35.686,0.033c-6.195-1.549-12.586-0.589-18.868-1.222
		c-4.461-0.458-8.933-0.796-13.415-0.774c-0.709-0.076-2.138-0.229-2.847-0.305c-1.56-1.407-3.697-1.669-5.628-0.982
		c-0.753-0.033-2.269-0.109-3.032-0.153c-0.927-1.298-2.127-1.625-3.588-0.992c-8.573-1.058-16.84-3.763-25.02-6.424
		c-18.225-6.326-35.207-17.418-46.266-33.472c-8.834-12.717-13.71-27.801-15.858-43.048c-2.247-13.71-2.443-27.768,0.109-41.456
		c1.472-9.118,4.035-18.072,7.384-26.667c4.297-8.845,8.005-18.083,14.004-25.979c5.159-8.78,11.986-16.349,18.988-23.667
		c15.182-14.975,32.818-27.594,52.199-36.537c-2.378-9.827-6.282-19.239-8.289-29.164c-7.166-29.524-9.914-60.008-9.5-90.35
		c0.862-12.117,1.102-24.3,2.978-36.341c2.072-19.272,6.795-38.119,12.357-56.638c8.005-24.289,19.065-47.771,34.279-68.384
		c10.449-13.83,22.795-26.514,37.802-35.37c7.7-5.497,16.676-8.693,25.641-11.43c13.001-4.101,26.907-3.414,40.245-1.625
		c9.598-29.47,21.813-58.045,36.254-85.453c3.348-6.391,7.951-12.237,9.816-19.305c2.149-7.842,4.395-15.684,7.438-23.231
		c1.08-2.639,1.603-5.453,1.854-8.278c-19.327-2.454-37.453-10.743-53.65-21.301c-14.855-10.285-27.845-23.34-37.661-38.533
		c-11.539-17.985-18.661-38.947-19.741-60.335c-1.211-8.562,0.24-17.145,0.807-25.696c2.574-16.164,7.613-32.087,16.044-46.189
		c10.361-17.69,25.009-32.796,42.012-44.183c9.641-5.759,19.425-11.517,30.211-14.877c7.656-3.37,16-4.374,24.071-6.337
		c1.571,0.829,3.49,0.556,4.635-0.851c1.287-0.12,2.585-0.229,3.872-0.338c10.078,0.218,20.155,0.153,30.233,0.033
		c0.698,0.087,2.094,0.262,2.792,0.349c1.549,1.396,3.719,1.614,5.639,0.894c13.295,2.094,26.067,6.631,38.282,12.183
		c8.354,4.232,16.251,9.303,23.853,14.768c1.08-1.603,2.192-3.217,2.792-5.061c5.322-15.269,12.15-29.928,18.858-44.608
		c16.785-35.741,36.668-70.01,58.808-102.697c5.966-8.867,12.663-17.211,18.487-26.187c13.339-17.81,27.343-35.108,41.467-52.297
		c18.727-21.562,38.184-42.481,58.307-62.746c16.905-16.567,34.225-32.731,52.003-48.349c11.648-10.601,24.191-20.134,36.177-30.342
		c12.445-9.783,24.66-19.894,37.682-28.913c16.644-13.001,34.203-24.747,51.61-36.69c7.635-5.541,16.011-9.958,23.624-15.531
		c14.015-8.147,27.256-17.603,41.565-25.26c8.169-5.377,17.123-9.401,25.26-14.833c0.589-0.284,1.745-0.862,2.334-1.156
		c26.798-14.658,53.748-29.11,81.614-41.663c53.246-25.314,108.379-46.626,164.668-64.142c1.571,0.753,3.392,0.262,4.352-1.232
		c23.973-7.635,48.393-13.688,72.791-19.752c27.441-6.075,54.937-12.085,82.814-15.836c29.786-4.766,59.834-7.82,89.958-9.347
		C1419.381,40.414,1425.718,40.741,1432.022,40.086 M1356.123,60.493c-4.712-0.076-9.249,1.461-13.928,1.723
		c-15.651,1.8-31.378,2.847-46.964,5.137c-13.862,2.17-27.801,3.872-41.489,6.958c-69.039,13.47-135.406,38.031-199.188,67.337
		c-21.312,9.576-42.645,19.087-63.727,29.164c-19.097,9.423-38.086,19.065-56.78,29.273c-15.247,8.649-30.942,16.48-46.615,24.344
		c-37.791,19.774-73.227,43.736-107.212,69.421c-34.094,25.925-66.727,53.759-97.854,83.185
		c-60.499,57.445-116.297,120.409-161.57,190.648c-25.609,40.213-48.055,82.977-61.557,128.862
		c4.308,4.548,8.573,9.14,12.641,13.917c5.388-4.668,10.165-9.98,15.466-14.735c47.629-45.066,101.453-83.414,158.887-114.945
		c2.858-1.778,6.326-2.803,8.725-5.181c2.356-0.785,4.603-1.887,6.795-3.076c8.344-4.515,16.938-8.529,25.412-12.783
		c86.98-41.194,181.29-68.395,277.606-73.98c16.72-0.48,33.462-1.963,50.17-0.513c31.531,0.753,62.975,4.668,93.71,11.746
		c53.617,12.172,106.798,26.623,158.528,45.317c80.927,29.044,158.735,69.628,223.4,126.855
		c64.076,55.973,113.614,127.258,149.072,204.303c40.071,86.217,64.229,178.912,81.069,272.207
		c4.548,25.358,8.562,50.858,10.623,76.553c1.232,7.94,0.545,16.033,1.571,24.005c1.08,29.568-0.327,59.288-5.606,88.42
		c7.231-3.752,13.753-8.725,20.603-13.131c77.448-52.395,146.836-117.017,203.092-191.782
		c51.697-68.723,92.172-146.41,114.956-229.497c14.92-54.14,21.802-110.506,19.621-166.642
		c-2.279-48.033-9.532-95.771-20.384-142.604c-21.312-90.012-58.252-176.502-110.211-253.121
		c-46.506-68.712-105.172-129.451-173.601-176.534c-76.652-53.072-165.791-88.115-258.236-100.581
		c-26.71-3.872-53.693-5.093-80.633-5.802C1413.644,55.247,1384.796,57.123,1356.123,60.493 M1848.164,132.836
		c-7.133,8.496-12.346,18.389-17.309,28.248c-2.094,4.363-5.039,8.736-5.17,13.699c5.661,5.29,12.019,9.805,17.811,14.975
		c9.761,8.322,19.239,16.993,28.553,25.816c47.324,45.382,87.907,97.614,121.227,154.045c26.667-8.867,49.647-27.267,65.974-49.963
		c24.682-34.225,33.92-78.669,26.503-120.06c-6.708-39.187-28.924-76.052-62.091-98.378c-21.944-14.822-48.513-23.1-75.059-21.933
		C1909.11,79.994,1871.515,101.414,1848.164,132.836 M1204.095,659.877c-46.746,4.417-90.961,34.029-110.637,77.001
		c-5.072,11.299-9.434,23.231-10.547,35.632c4.657,4.504,10.241,7.94,15.149,12.172c13.611,11.43,27.506,22.588,39.962,35.316
		c8.431,7.166,16.229,15.051,23.427,23.46c8.66,8.464,16.611,17.603,24.354,26.896c12.401,14.288,23.831,29.404,34.857,44.772
		c2.247,2.759,3.676,7.766,8.038,7.395c29.95-1.538,59.07-13.557,82.029-32.72c8.027-7.624,16.174-15.291,22.413-24.507
		c11.801-16.905,20.155-36.504,22.664-57.052c3.217-21.028,0.185-42.721-7.078-62.615c-7.373-18.65-18.869-35.697-33.593-49.32
		C1285.764,668.678,1244.025,655.579,1204.095,659.877 M669.486,699.271c-42.841,12.314-83.915,30.484-122.318,53.061
		c-71.602,42.307-134.184,99.85-182.151,167.798c-24.507,35.108-45.481,72.9-60.455,113.069c-0.807,1.451-1.472,2.988-2.04,4.581
		c-12.575,34.072-21.05,69.682-24.987,105.794c-3.905,39.231-1.8,79.291,8.18,117.519c4.581,17.723,10.547,35.119,18.05,51.828
		c9.914,22.522,22.544,43.736,35.937,64.349c0.883,1.298,1.8,2.65,3.141,3.566c2.356,4.646,5.726,8.66,8.758,12.881
		c2.607,3.501,4.973,7.286,8.464,10.012l0.12,0.6c21.104,17.014,38.882,38.173,52.035,61.873c2.443,4.112,3.708,8.965,7.133,12.455
		c-0.644-5.214-5.617-9.391-4.766-14.702c56.616,52.788,123.746,93.982,195.686,122.361c45.699,17.625,93.513,30.495,142.386,34.912
		c47.858,5.05,96.349-0.294,142.833-12.215c46.473-11.725,91.147-29.928,133.562-52.134c15.651-8.616,31.596-16.992,46.222-27.212
		c1.014-6.915,1.309-13.928,2.901-20.745c1.952-8.344,3.316-16.916,6.915-24.747c5.323-11.921,14.462-21.868,25.249-29.11
		c18.083-12.074,39.111-18.672,59.899-24.398c10.459-3.207,21.115-5.671,31.738-8.278c1.603-0.36,3.108-1.145,4.177-2.421
		c29.688-33.56,55.395-71.024,73.271-112.229c19.403-44.117,29.197-93.033,24.147-141.197
		c-4.265-47.237-17.222-93.481-35.905-136.998c-18.127-42.121-41.63-81.843-69.039-118.577
		c-50.345-67.152-113.789-124.837-186.776-166.5c-56.387-32.109-118.915-54.446-183.7-60.772
		C774.887,678.418,720.845,684.569,669.486,699.271 M221.999,1372.362c-41.631,3.861-82.748,19.599-114.192,47.553
		c-8.278,8.104-16.829,16.12-23.198,25.903c-13.306,18.825-22.119,41.205-23.078,64.382c-0.851,19.981,2.018,40.671,11.517,58.503
		c7.744,13.622,19.894,24.671,34.083,31.28c3.141,1.44,6.588,0.055,9.87,0.131c1.712,1.56,1.854,4.635,4.341,5.366
		c6.686,2.64,13.808,3.97,20.853,5.312c27.637,4.864,55.864,4.81,83.806,3.687c0.72-4.963,0.218-10.045,1.538-14.909
		c3.217-0.349,6.457-0.24,9.663,0.185c-0.011,4.537-0.36,9.063-0.589,13.611c6.708,1.352,13.579,0.273,20.352,0.633
		c14.19,0.567,28.346,1.821,42.503,2.912c12.172,0.654,24.464,2.323,36.624,0.829c0.414-4.559,0.774-9.129,1.701-13.611
		c3.119-0.207,6.239-0.044,9.347,0.327c0.556,4.188-0.185,8.376-0.643,12.554c4.243,0.447,8.464-0.36,12.554-1.407
		c19.054-4.483,37.355-14.691,48.916-30.779c11.005-14.331,15.586-32.796,14.888-50.683c-0.971-21.813-8.671-42.754-18.89-61.84
		c-9.445-16.785-20.853-32.622-34.868-45.895c-22.315-23.133-50.77-40.551-81.81-49.101
		C266.094,1371.391,243.834,1370.224,221.999,1372.362 M1334.964,1396.16c-20.396,3.207-39.46,11.43-59.19,17.123
		c-23.34,6.969-46.942,13.001-70.599,18.803c-25.325,6.479-51.032,12.412-74.907,23.318c-13.95,6.839-27.801,16.305-34.661,30.735
		c-5.115,9.827-6.697,20.984-8.485,31.793c-1.952,13.742-2.41,28.106,1.854,41.489c4.919,16.502,16.665,30.887,31.815,39.046
		c-0.251-2.727-0.425-5.432-0.633-8.136c2.061-0.382,4.385-1.909,6.435-0.883c2.585,4.581,2.781,10.034,4.744,14.866
		c2.105,1.723,4.755,2.585,7.231,3.686c20.483,8.18,42.187,13.164,64.098,15.477c-0.305-3.643-2.77-6.511-4.428-9.587
		c1.778-1.309,3.61-2.53,5.497-3.676c3.752,3.174,5.922,7.656,7.656,12.161c0.578,2.694,3.828,2.454,5.977,2.879
		c10.689,0.687,21.366,1.811,32.098,1.756c6.064-0.142,12.183,1.113,18.214-0.065c-0.862-3.065-1.592-6.184-1.581-9.38
		c2.498-0.131,6.86-2.247,7.493,1.571c1.331,2.978,1.571,7.929,5.715,8.289c34.465-0.556,68.963-2.236,103.231-6.173
		c26.601-3.588,53.584-7.722,78.375-18.509c13.71-5.781,26.514-14.986,34.16-27.997c7.329-13.317,8.474-28.935,8.518-43.844
		c-0.175-13.066,0.033-26.154-0.829-39.198c-0.382-10.078-3.294-19.883-7.275-29.077c-7.351-16.84-20.624-30.233-34.912-41.369
		C1424.682,1395.549,1377.859,1388.416,1334.964,1396.16z"/>
	<path class="st2" d="M1522.056,45.376c1.898-0.731,4.068-0.556,5.639,0.873C1525.753,46.947,1523.615,46.718,1522.056,45.376z"/>
	<path class="st3" d="M1572.248,54.025c1.571-0.578,2.683-0.153,3.337,1.298C1574.168,55.694,1573.055,55.268,1572.248,54.025z"/>
	<path class="st4" d="M1356.123,60.493c28.673-3.37,57.521-5.246,86.391-5.53c26.939,0.709,53.922,1.93,80.633,5.802
		c92.444,12.466,181.584,47.509,258.236,100.581c68.428,47.084,127.095,107.823,173.601,176.534
		c51.959,76.619,88.9,163.108,110.211,253.121c10.852,46.833,18.105,94.571,20.384,142.604
		c2.181,56.136-4.701,112.502-19.621,166.642c-22.784,83.087-63.258,160.774-114.956,229.497
		c-56.256,74.765-125.644,139.386-203.092,191.782c-6.849,4.406-13.372,9.38-20.603,13.131c5.279-29.131,6.686-58.852,5.606-88.42
		c-1.025-7.973-0.338-16.065-1.571-24.005c-2.061-25.696-6.075-51.196-10.623-76.553c-16.84-93.295-40.998-185.99-81.069-272.207
		c-35.457-77.044-84.995-148.33-149.072-204.303c-64.665-57.227-142.473-97.81-223.4-126.855
		c-51.73-18.694-104.911-33.145-158.528-45.317c-30.735-7.078-62.179-10.994-93.71-11.746c-16.709-1.451-33.451,0.033-50.17,0.513
		c-96.316,5.584-190.626,32.785-277.606,73.98c-8.474,4.254-17.069,8.267-25.412,12.783c-2.192,1.189-4.439,2.29-6.795,3.076
		c6.915-11.441,15.226-21.988,23.111-32.785c46.091-61.404,97.44-119.013,154.449-170.481
		c60.128-54.522,126.102-102.686,196.984-142.277c105.936-59.496,222.789-99.272,342.904-117.388
		c77.208-11.91,155.681-15.029,233.652-10.852c5.552,0.24,11.147,1.418,16.698,0.393c-6.719-5.737-15.346-8.442-23.373-11.757
		c-41.107-14.179-84.363-20.875-127.509-25.14c-36.21-3.25-72.649-5.464-109.001-3.556c-4.079,0.447-8.18,0.883-12.281,0.698
		c2.236-0.404,4.493-0.687,6.773-0.949C1357.061,61.256,1356.428,60.754,1356.123,60.493z"/>
	<path class="st5" d="M1577.745,54.909c1.374-0.349,2.476,0.109,3.327,1.374C1579.436,56.828,1578.323,56.37,1577.745,54.909z"/>
	<path class="st6" d="M1342.195,62.216c4.679-0.262,9.216-1.8,13.928-1.723c0.305,0.262,0.938,0.763,1.243,1.014
		c-2.28,0.262-4.537,0.545-6.773,0.949c4.101,0.185,8.202-0.251,12.281-0.698c36.352-1.909,72.791,0.305,109.001,3.556
		c43.147,4.264,86.402,10.961,127.509,25.14c8.027,3.316,16.654,6.02,23.373,11.757c-5.551,1.025-11.146-0.153-16.698-0.393
		c-77.971-4.177-156.444-1.058-233.652,10.852c-120.115,18.116-236.968,57.892-342.904,117.388
		c-70.882,39.591-136.856,87.755-196.984,142.277c-57.009,51.468-108.357,109.077-154.449,170.481
		c-7.885,10.798-16.196,21.344-23.111,32.785c-2.399,2.378-5.868,3.403-8.725,5.181c-57.434,31.531-111.258,69.879-158.887,114.945
		c-5.301,4.755-10.078,10.067-15.466,14.735c-4.068-4.777-8.333-9.369-12.641-13.917c13.502-45.884,35.948-88.649,61.557-128.862
		c45.273-70.239,101.072-133.202,161.57-190.648c31.128-29.426,63.76-57.26,97.854-83.185
		c33.985-25.685,69.421-49.647,107.212-69.421c15.673-7.864,31.367-15.695,46.615-24.344c18.694-10.209,37.682-19.85,56.78-29.273
		c21.083-10.078,42.416-19.588,63.727-29.164c63.782-29.306,130.149-53.868,199.188-67.337c13.688-3.087,27.626-4.788,41.489-6.958
		C1310.817,65.063,1326.544,64.016,1342.195,62.216z"/>
	<path class="st7" d="M1938.776,64.637c8.703-1.614,17.8-1.472,26.536-0.033C1956.466,64.746,1947.61,64.844,1938.776,64.637z"/>
	<path class="st8" d="M1929.876,65.793c1.647-1.331,3.828-1.451,5.802-0.709C1933.988,66.382,1931.795,66.546,1929.876,65.793z"/>
	<path class="st9" d="M1969.216,65.074c1.876-0.774,4.046-0.611,5.682,0.742C1972.957,66.557,1970.808,66.393,1969.216,65.074z"/>
	<path class="st4" d="M1848.164,132.836c23.351-31.422,60.946-52.843,100.439-53.551c26.547-1.167,53.115,7.111,75.059,21.933
		c33.167,22.326,55.384,59.19,62.091,98.378c7.417,41.391-1.822,85.835-26.503,120.06c-16.327,22.697-39.307,41.096-65.974,49.963
		c-33.32-56.431-73.903-108.663-121.227-154.045c0.534-22.239,3.588-45.252,15.084-64.72c9.401-16.055,25.074-28.03,42.787-33.549
		c29.688-9.096,61.361-4.777,91.059,1.952c5.115,0.905,10.078,3.654,15.4,2.694c-2.629-5.737-8.18-9.162-13.186-12.586
		c-19.817-12.488-42.667-20.068-65.974-22.239c-18.051-1.429-36.635,0.382-53.552,7.1c-16.414,6.119-31.138,16.24-43.637,28.423
		c-4.123,4.025-7.471,8.78-11.888,12.51C1848.142,134.57,1848.153,133.414,1848.164,132.836z"/>
	<path class="st10" d="M1163.163,86.745c1.036-1.32,2.738-1.756,4.352-1.232C1166.555,87.007,1164.733,87.498,1163.163,86.745z"/>
	<path class="st6" d="M1903.667,94.227c16.916-6.718,35.501-8.529,53.552-7.1c23.307,2.17,46.157,9.751,65.974,22.239
		c5.006,3.425,10.557,6.849,13.186,12.586c-5.322,0.96-10.285-1.789-15.4-2.694c-29.699-6.729-61.372-11.048-91.059-1.952
		c-17.712,5.519-33.385,17.494-42.787,33.549c-11.496,19.468-14.55,42.481-15.084,64.72c-9.314-8.823-18.792-17.494-28.553-25.816
		c-5.792-5.17-12.15-9.685-17.811-14.975c0.131-4.963,3.076-9.336,5.17-13.699c4.962-9.86,10.176-19.752,17.309-28.248
		c-0.011,0.578-0.022,1.734-0.022,2.323c4.417-3.73,7.766-8.485,11.888-12.51C1872.529,110.467,1887.253,100.345,1903.667,94.227z"
		/>
	<path class="st11" d="M914.547,193.706c0.589-0.284,1.745-0.862,2.334-1.156C916.292,192.844,915.136,193.423,914.547,193.706z"/>
	<path class="st12" d="M347.108,658.993c9.969-1.581,20.264-1.527,30.233,0.033C367.264,659.146,357.186,659.211,347.108,658.993z"
		/>
	<path class="st13" d="M338.601,660.182c1.265-1.189,3.032-1.44,4.635-0.851C342.091,660.738,340.172,661.011,338.601,660.182z"/>
	<path class="st14" d="M380.134,659.375c1.92-0.698,4.057-0.48,5.639,0.894C383.853,660.989,381.682,660.771,380.134,659.375z"/>
	<path class="st15" d="M1204.095,659.877c39.929-4.297,81.669,8.802,111.04,36.428c14.724,13.622,26.22,30.669,33.593,49.32
		c7.264,19.894,10.296,41.587,7.078,62.615c-2.509,20.548-10.863,40.147-22.664,57.052c-6.239,9.216-14.386,16.883-22.413,24.507
		c-22.958,19.163-52.079,31.182-82.029,32.72c-4.363,0.371-5.791-4.635-8.038-7.395c-11.027-15.367-22.457-30.484-34.857-44.772
		c-7.744-9.292-15.695-18.432-24.354-26.896c-7.198-8.409-14.997-16.294-23.427-23.46c-12.455-12.728-26.35-23.885-39.962-35.316
		c-4.908-4.232-10.492-7.667-15.149-12.172c1.113-12.401,5.475-24.333,10.547-35.632
		C1113.134,693.905,1157.35,664.294,1204.095,659.877z"/>
	<path class="st4" d="M669.486,699.271c51.359-14.702,105.401-20.853,158.669-15.575c64.785,6.326,127.313,28.663,183.7,60.772
		c72.987,41.663,136.431,99.348,186.776,166.5c27.408,36.734,50.912,76.455,69.039,118.577
		c18.683,43.517,31.64,89.761,35.905,136.998c5.05,48.164-4.744,97.08-24.147,141.197c-17.876,41.205-43.583,78.669-73.271,112.229
		c-1.069,1.276-2.574,2.061-4.177,2.421c-10.623,2.607-21.279,5.072-31.738,8.278c-20.788,5.726-41.816,12.324-59.899,24.398
		c-10.787,7.242-19.926,17.189-25.249,29.11c-3.599,7.831-4.962,16.403-6.915,24.747c-1.592,6.817-1.887,13.83-2.901,20.745
		c-14.626,10.219-30.571,18.596-46.222,27.212c-42.416,22.206-87.089,40.409-133.562,52.134
		c-46.484,11.921-94.975,17.265-142.833,12.215c-48.872-4.417-96.687-17.287-142.386-34.912
		c-71.94-28.379-139.07-69.573-195.686-122.361c-5.41-5.781-8.06-13.328-11.605-20.243c-19.686-40.136-40.605-80.011-53.813-122.885
		c-5.562-16.927-9.282-34.41-12.15-51.97c-5.53-36.395-4.504-73.63,1.68-109.873c6.555-39.449,18.748-77.764,33.614-114.825
		c29.611-72.725,68.308-142.397,119.416-202.307c23.177-26.961,48.971-51.839,77.808-72.714
		c32.763-23.798,69.519-42.579,108.848-52.635c10.59-3.01,21.41-4.995,32.207-7.089c2.77-0.513,5.464-1.429,8.005-2.672
		c-3.108-0.065-6.228,0.022-9.282,0.622c-43.615,8.605-86.01,22.631-127.051,39.591c-36.526,14.964-70.566,35.577-101.824,59.616
		c-31.422,24.224-60.183,51.839-85.933,82.007c-34.094,39.787-63.149,84.166-83.752,132.417c-2.072,3.97-2.05,9.685-6.195,12.204
		c14.975-40.169,35.948-77.96,60.455-113.069c47.967-67.948,110.549-125.491,182.151-167.798
		C585.57,729.755,626.645,711.585,669.486,699.271 M538.508,1058.764c-16.894,5.028-30.386,17.222-42.078,29.928
		c-18.356,20.864-32.622,45.012-44.466,70.053c-10.95,23.667-20.286,48.294-24.889,74.045l-0.196-0.96
		c-0.447,1.44-0.851,2.89-1.2,4.374c-13.241,2.149-26.645,4.395-39.013,9.805c-8.54,3.435-16.927,8.234-22.555,15.705
		c-4.101,5.399-4.624,13.262-0.862,18.978c4.952,7.526,12.903,12.433,20.952,16.098c12.226,5.442,25.391,8.431,38.588,10.394
		c4.701,13.524,15.313,23.875,25.729,33.254c17.974,15.236,38.053,27.714,58.089,40.005c17.734,11.79,40.256,12.532,58.1,24.147
		c5.541,35.665,22.533,69.137,46.724,95.782c26.743,29.666,61.731,51.436,99.512,64.054c49.08,16.589,102.937,18.051,153.031,5.083
		c37.922-9.979,73.794-28.608,102.664-55.286c30.495-28.03,52.984-65.592,59.845-106.699c0.436-1.429,0.196-3.305,1.451-4.297
		c10.568-4.559,21.791-7.286,32.633-11.103c7.406-2.454,13.764-7.133,20.439-11.027c19.545-12.074,39.035-24.529,56.125-39.962
		c10.808-10.099,21.322-22.217,23.973-37.213c1.025-1.472,2.018-3.228,3.981-3.512c8.747-2.192,17.363-5.159,25.216-9.663
		c6.609-3.61,13.012-8.496,16.055-15.607c2.487-5.312,1.145-11.703-2.203-16.294c-3.73-5.05-8.845-8.911-14.342-11.834
		c-10.939-6.184-23.275-9.292-35.49-11.779c-6.359-31.106-18.334-60.826-33.003-88.9c-10.568-19.567-22.62-38.5-37.693-54.937
		c-10.634-11.408-22.849-22.108-37.737-27.463c-11.616-4.297-24.235-2.454-36.188-0.883c-21.737,2.967-42.994,11.201-60.095,25.107
		c-12.434,9.849-22.326,22.609-30.157,36.33c-11.866,21.497-19.065,45.241-23.918,69.213c-0.207,1.723-1.102,2.214-2.672,1.505
		c-61.121-24.115-131.25-24.202-192.556-0.654c-4.035,1.614-7.929,3.621-12.139,4.733c-4.384-22.751-9.969-45.491-19.686-66.618
		c-9.641-21.475-24.224-41.216-43.943-54.402c-16.491-11.299-35.992-17.451-55.678-20.046
		C558.806,1057.182,548.335,1055.514,538.508,1058.764z"/>
	<path class="st16" d="M709.317,707.364c3.054-0.6,6.173-0.687,9.282-0.622c-2.541,1.243-5.235,2.16-8.005,2.672
		c-10.797,2.094-21.617,4.079-32.207,7.089c-39.329,10.056-76.085,28.837-108.848,52.635
		c-28.837,20.875-54.631,45.753-77.808,72.714c-51.108,59.91-89.805,129.581-119.416,202.307
		c-14.866,37.061-27.059,75.376-33.614,114.825c-6.184,36.243-7.209,73.478-1.68,109.873c2.868,17.56,6.588,35.043,12.15,51.97
		c13.208,42.874,34.127,82.748,53.813,122.885c3.545,6.915,6.195,14.462,11.605,20.243c-0.851,5.312,4.123,9.489,4.766,14.702
		c-3.425-3.49-4.69-8.344-7.133-12.455c-13.153-23.7-30.931-44.859-52.035-61.873l-0.12-0.6c-0.524-4.395-4.417-7.122-6.849-10.481
		c-3.577-4.036-5.759-9.38-10.372-12.412c-1.341-0.916-2.258-2.269-3.141-3.566c-13.393-20.614-26.023-41.827-35.937-64.349
		c-7.504-16.709-13.47-34.105-18.05-51.828c-9.98-38.228-12.085-78.288-8.18-117.519c3.937-36.112,12.412-71.722,24.987-105.794
		c0.567-1.592,1.232-3.13,2.04-4.581c4.145-2.519,4.123-8.234,6.195-12.204c20.603-48.251,49.658-92.63,83.752-132.417
		c25.751-30.168,54.511-57.783,85.933-82.007c31.258-24.038,65.298-44.652,101.824-59.616
		C623.307,729.995,665.701,715.969,709.317,707.364z"/>
	<path class="st17" d="M2137.603,723.778c1.407,2.345,1.516,5.126,0.72,7.711C2136.96,729.112,2136.785,726.363,2137.603,723.778z"
		/>
	<path class="st18" d="M2136.393,946.426c-0.698-1.93-0.48-4.025,0.742-5.671C2137.963,942.63,2137.843,944.866,2136.393,946.426z"
		/>
	<path class="st19" d="M2127.602,996.607c-0.731-1.625-0.36-3.457,1.025-4.592C2129.227,993.619,2128.9,995.429,2127.602,996.607z"
		/>
	<path class="st1" d="M538.508,1058.764c9.827-3.25,20.297-1.582,30.342-0.545c19.686,2.596,39.188,8.747,55.678,20.046
		c19.719,13.186,34.301,32.927,43.943,54.402c9.718,21.126,15.302,43.866,19.686,66.618c4.21-1.112,8.104-3.119,12.139-4.733
		c61.306-23.547,131.436-23.46,192.556,0.654c1.57,0.709,2.465,0.218,2.672-1.505c4.853-23.973,12.052-47.716,23.918-69.213
		c7.831-13.721,17.723-26.481,30.157-36.33c17.102-13.906,38.359-22.14,60.095-25.107c11.954-1.571,24.573-3.414,36.188,0.883
		c14.887,5.355,27.103,16.055,37.737,27.463c15.073,16.436,27.125,35.37,37.693,54.937c14.669,28.074,26.645,57.794,33.003,88.9
		c-12.848-2.563-25.936-3.13-38.991-3.316c-10.154,0.513-20.363,0.513-30.386,2.378c-13.797,2.476-27.801,5.432-40.224,12.194
		c-6.849,3.643-13.666,8.387-17.167,15.531c-2.792,5.628-1.701,12.641,2.094,17.549c5.661,7.395,14.124,12.008,22.566,15.564
		c21.388,8.398,44.608,11.245,67.468,10.917c13.993,0.055,27.899-1.821,41.63-4.352c-0.055,0.556-0.153,1.669-0.207,2.225
		c-2.65,14.997-13.164,27.114-23.973,37.213c-17.091,15.433-36.581,27.888-56.125,39.962c-6.675,3.894-13.033,8.573-20.439,11.027
		c-10.841,3.817-22.064,6.544-32.633,11.103c-1.254,0.993-1.014,2.868-1.451,4.297c-6.86,41.107-29.35,78.669-59.845,106.699
		c-28.87,26.678-64.742,45.306-102.664,55.286c-50.094,12.968-103.951,11.506-153.031-5.083
		c-37.781-12.619-72.769-34.389-99.512-64.054c-24.191-26.645-41.183-60.117-46.724-95.782
		c-17.843-11.615-40.365-12.357-58.1-24.147c-20.035-12.292-40.115-24.769-58.089-40.005c-10.416-9.38-21.028-19.73-25.729-33.254
		c23.111,2.781,46.735,2.465,69.595-2.16c10.001-1.789,19.697-5.104,28.902-9.369c7.384-3.719,14.866-8.453,18.956-15.891
		c3.272-5.781,2.378-13.306-1.701-18.432c-6.697-8.791-17.145-13.546-27.201-17.363c-27.038-9.423-56.147-10.416-84.439-8.093
		c0.044-0.774,0.131-2.323,0.175-3.086c4.603-25.751,13.939-50.378,24.889-74.045c11.845-25.042,26.11-49.189,44.466-70.053
		C508.123,1075.986,521.614,1063.792,538.508,1058.764 M541.333,1078.025c-14.637,5.693-25.38,18.552-31.542,32.665
		c-7.046,17.025-8.78,36.243-4.635,54.206c3.283,14.222,10.056,28.052,21.115,37.813c8.256,7.646,19.327,12.324,30.637,12.248
		c11.932-0.414,23.417-5.911,31.64-14.506c14.539-14.528,20.799-35.49,21.104-55.646c-0.382-13.426-3.087-27.005-9.412-38.948
		c-3.076-5.759-6.544-11.517-11.681-15.673c1.123,3.141,2.618,6.13,3.676,9.303c3.348,10.994,2.738,23.253-2.247,33.669
		c-3.305,7.155-9.227,13.502-16.916,15.847c-7.406,2.345-15.738-0.436-21.192-5.726c-5.344-5.388-8.834-12.488-10.536-19.828
		c-1.68-10.514-1.222-21.944,4.275-31.346c3.937-7.864,11.387-13.633,20.046-15.313c-1.091-0.622-2.192-1.243-3.457-1.265
		C555.185,1074.862,547.888,1075.189,541.333,1078.025 M563.866,1080.076c-9.696,2.16-16.229,11.157-18.89,20.264
		c-3.675,12.499-2.236,27.016,5.661,37.65c3.697,5.203,9.674,8.758,16.055,9.303c5.726-0.229,11.43-2.53,15.313-6.839
		c6.468-6.991,9.849-16.709,9.511-26.187c0.502-10.601-3.054-21.813-10.972-29.11
		C576.147,1081.003,569.854,1078.963,563.866,1080.076 M989.246,1087.459c-14.244,9.99-23.373,26.089-26.983,42.917
		c-5.366,23.569-1.276,49.68,13.012,69.432c8.867,12.368,23.068,21.551,38.599,21.715c14.026,0.164,27.114-7.318,36.079-17.756
		c12.477-14.691,18.781-34.334,18.225-53.508c0.458-18.901-5.726-38.195-17.941-52.723c-5.301-5.846-11.343-11.637-19.054-13.993
		c0.676,0.873,1.374,1.745,2.116,2.618c12.204,12.717,13.906,33.178,6.751,48.84c-4.046,8.474-11.834,16.436-21.781,16.687
		c-7.558,0.556-14.626-3.73-19.185-9.5c-11.866-15.258-11.877-38.38,0.055-53.606c2.596-3.447,6.435-5.573,9.631-8.376
		C1001.68,1080.446,995.07,1083.653,989.246,1087.459 M1013.219,1082.17c-9.947,2.53-16.338,12.063-18.727,21.562
		c-3.032,10.841-1.745,22.904,3.806,32.731c3.926,6.631,10.612,12.968,18.858,12.553c9.412,0.393,16.894-7.318,20.613-15.28
		c6.599-14.222,5.192-32.611-5.268-44.641C1027.866,1083.609,1020.352,1080.468,1013.219,1082.17 M734.86,1191.879
		c-14.517,2.269-28.75,6.784-41.772,13.633c-16.993,7.755-33.265,17.112-48.098,28.477c-11.005,8.562-23.231,15.836-32.284,26.634
		c-9.914,11.67-17.832,24.965-24.398,38.773c-12.314,26.263-19.861,55.122-19.217,84.265c-0.098,11.441,1.102,23.035,4.875,33.898
		c3.097,9.336,6.304,18.716,10.645,27.561c4.744,10.754,10.132,21.486,17.527,30.669c0.523,2.356,2.432,4.09,3.708,6.086
		c3.501,4.613,5.573,10.219,9.62,14.451c4.221,4.515,8.943,8.54,13.721,12.455c15.324,12.237,30.855,24.78,48.731,33.102
		c11.354,6.446,23.624,11.125,35.937,15.444c49.134,16.393,103.242,17.494,153.074,3.392c39.002-11.027,75.55-31.749,103.667-61.121
		c28.903-30.004,48.185-69.922,50.498-111.76c0.12-11.212,0.589-22.511-1.211-33.614c-4.188-27.964-15.237-54.849-31.891-77.699
		c-25.838-35.905-63.749-62.102-105.151-76.968C835.626,1182.761,783.536,1180.122,734.86,1191.879z"/>
	<path class="st20" d="M541.333,1078.025c6.555-2.836,13.851-3.163,20.875-2.498c1.265,0.022,2.367,0.644,3.457,1.265
		c-8.66,1.68-16.109,7.449-20.046,15.313c-5.497,9.401-5.955,20.832-4.275,31.346c1.701,7.34,5.192,14.44,10.536,19.828
		c5.453,5.29,13.786,8.071,21.192,5.726c7.689-2.345,13.611-8.693,16.916-15.847c4.984-10.416,5.595-22.675,2.247-33.669
		c-1.058-3.174-2.552-6.162-3.676-9.303c5.137,4.156,8.605,9.914,11.681,15.673c6.326,11.943,9.031,25.521,9.412,38.948
		c-0.305,20.155-6.566,41.118-21.104,55.646c-8.224,8.594-19.708,14.091-31.64,14.506c-11.31,0.076-22.38-4.603-30.637-12.248
		c-11.059-9.761-17.832-23.591-21.115-37.813c-4.145-17.963-2.41-37.181,4.635-54.206
		C515.954,1096.577,526.697,1083.718,541.333,1078.025 M526.817,1165.104c-5.312,0.807-11.288,2.4-14.539,7.035
		c-2.269,3.37,0.829,7.384,3.959,8.802c7.482,3.436,16.12,4.69,24.213,2.912c4.952-1.014,10.721-2.53,13.142-7.482
		c1.778-2.563-0.709-5.399-2.672-6.958C543.853,1164.776,534.997,1164.275,526.817,1165.104z"/>
	<path class="st4" d="M563.866,1080.076c5.988-1.112,12.281,0.927,16.676,5.083c7.918,7.297,11.474,18.509,10.972,29.11
		c0.338,9.478-3.043,19.196-9.511,26.187c-3.883,4.308-9.587,6.609-15.313,6.839c-6.38-0.545-12.357-4.101-16.055-9.303
		c-7.896-10.634-9.336-25.151-5.661-37.65C547.637,1091.233,554.17,1082.235,563.866,1080.076z"/>
	<path class="st20" d="M989.246,1087.459c5.824-3.806,12.434-7.013,19.523-7.253c-3.196,2.803-7.035,4.93-9.631,8.376
		c-11.932,15.226-11.921,38.348-0.055,53.606c4.559,5.77,11.626,10.056,19.185,9.5c9.947-0.251,17.734-8.213,21.781-16.687
		c7.155-15.662,5.453-36.123-6.751-48.84c-0.742-0.872-1.44-1.745-2.116-2.618c7.711,2.356,13.753,8.147,19.054,13.993
		c12.215,14.528,18.399,33.821,17.941,52.723c0.556,19.174-5.748,38.817-18.225,53.508c-8.965,10.438-22.053,17.92-36.079,17.756
		c-15.531-0.164-29.731-9.347-38.599-21.715c-14.288-19.752-18.378-45.862-13.012-69.432
		C965.873,1113.548,975.002,1097.45,989.246,1087.459 M983.793,1171.593c-4.243,0.611-8.66,1.451-12.226,3.959
		c-1.658,1.287-3.566,2.967-3.326,5.301c-0.48,3.828,3.381,6.141,6.369,7.526c7.733,2.923,16.371,3.141,24.409,1.429
		c4.025-1.123,8.758-2.443,10.819-6.457c1.603-3.752-1.691-7.253-4.788-8.867C998.495,1171.298,990.937,1170.873,983.793,1171.593z"
		/>
	<path class="st4" d="M1013.219,1082.17c7.133-1.702,14.648,1.44,19.283,6.926c10.459,12.03,11.866,30.419,5.268,44.641
		c-3.719,7.962-11.201,15.673-20.613,15.28c-8.245,0.414-14.931-5.922-18.858-12.553c-5.551-9.827-6.838-21.89-3.806-32.731
		C996.881,1094.232,1003.272,1084.7,1013.219,1082.17z"/>
	<path class="st21" d="M526.817,1165.104c8.18-0.829,17.036-0.327,24.104,4.308c1.963,1.56,4.45,4.395,2.672,6.958
		c-2.421,4.952-8.191,6.468-13.142,7.482c-8.093,1.778-16.731,0.523-24.213-2.912c-3.13-1.418-6.228-5.432-3.959-8.802
		C515.528,1167.503,521.505,1165.911,526.817,1165.104 M526.838,1167.514c-3.523,0.731-7.1,1.647-10.198,3.534
		c-1.843,1.243-3.937,3.839-1.625,5.759c4.035,4.09,10.241,4.635,15.662,5.322c6.424,0.098,13.404-0.622,18.868-4.308
		c2.541-1.483,2.072-5.442-0.458-6.675C542.446,1167.132,534.375,1166.74,526.838,1167.514z"/>
	<path class="st4" d="M526.838,1167.514c7.536-0.774,15.607-0.382,22.25,3.632c2.53,1.233,2.999,5.192,0.458,6.675
		c-5.464,3.686-12.444,4.406-18.868,4.308c-5.421-0.687-11.626-1.232-15.662-5.322c-2.312-1.92-0.218-4.515,1.625-5.759
		C519.738,1169.161,523.316,1168.245,526.838,1167.514z"/>
	<path class="st22" d="M983.793,1171.593c7.144-0.72,14.702-0.295,21.257,2.89c3.097,1.614,6.391,5.115,4.788,8.867
		c-2.061,4.014-6.795,5.333-10.819,6.457c-8.038,1.712-16.676,1.494-24.409-1.429c-2.988-1.385-6.849-3.697-6.369-7.526
		c-0.24-2.334,1.669-4.014,3.326-5.301C975.133,1173.044,979.55,1172.204,983.793,1171.593 M981.502,1174.429
		c-4.123,1.189-11.779,2.334-10.808,8.104c2.977,3.828,8.115,5.006,12.695,5.595c7.885,0.371,16.938,0.84,23.329-4.668
		c2.301-1.898,0.447-4.93-1.691-5.966C998.015,1173.371,989.322,1172.945,981.502,1174.429z"/>
	<path class="st4" d="M981.502,1174.429c7.82-1.483,16.513-1.058,23.526,3.065c2.138,1.036,3.992,4.068,1.691,5.966
		c-6.391,5.508-15.444,5.039-23.329,4.668c-4.581-0.589-9.718-1.767-12.695-5.595
		C969.723,1176.763,977.38,1175.617,981.502,1174.429z"/>
	<path class="st4" d="M734.86,1191.879c48.676-11.757,100.766-9.118,147.981,7.678c41.401,14.866,79.313,41.063,105.151,76.968
		c16.654,22.849,27.703,49.734,31.891,77.699c1.8,11.103,1.331,22.402,1.211,33.614c-2.312,41.838-21.595,81.756-50.498,111.76
		c-28.117,29.371-64.665,50.094-103.667,61.121c-49.832,14.102-103.94,13.001-153.074-3.392
		c-12.314-4.319-24.583-8.998-35.937-15.444c-12.085-13.361-25.183-25.772-36.821-39.536
		c-13.132-15.084-24.703-31.673-32.796-50.018c-6.969-16.578-11.397-34.29-12.172-52.286c-0.513-15.302-0.24-30.822,3.49-45.753
		c4.646-16.873,12.335-32.687,20.548-48.065c10.939-19.774,23.438-38.675,37.268-56.551c8.802-11.43,18.77-22.14,30.768-30.277
		c10.514-7.166,21.442-13.764,32.796-19.501C725.862,1197.649,730.127,1194.355,734.86,1191.879 M751.384,1252.891
		c-14.582,3.327-28.575,9.031-41.467,16.589c-5.759,3.457-11.419,7.351-15.716,12.586c-1.963,2.301-3.479,5.682-1.985,8.627
		c2.05,3.174,6.042,4.123,9.543,4.712c7.275,0.96,14.669,0.48,21.955-0.229c11.583-0.534,23.351,3.981,31.16,12.652
		c13.753,14.669,19.196,34.618,25.325,53.246c2.748,7.7,4.428,16.327,10.274,22.413c3.545,2.803,9.565,3.861,12.913,0.185
		c5.301-5.781,7.34-13.6,9.947-20.799c5.944-16.731,11.223-34.203,22.217-48.447c5.955-7.46,13.655-13.873,22.948-16.567
		c14.582-4.755,30.2,1.56,44.793-3.087c3.272-1.025,6.402-4.45,4.875-8.049c-2.836-6.359-9.129-10.143-14.691-13.851
		c-12.423-7.536-25.903-13.317-39.907-17.113c-9.532-2.792-19.577-4.603-29.502-3.272c-7.1,0.873-11.474,7.231-17.865,9.783
		c-6.14,3.73-13.917,2.367-19.763-1.265c-5.595-2.443-9.292-8.627-15.76-8.987C764.254,1251.789,757.688,1251.462,751.384,1252.891
		 M680.709,1451.238c1.298,8.845,9.543,14.539,16.938,18.399c10.896,5.05,22.849,7.929,34.836,8.551
		c13.862,1.636,28.019,0.556,41.598-2.607c9.325-2.203,18.836-6.053,24.954-13.775c5.955,7.853,15.378,11.975,24.769,14.037
		c17.2,4.254,35.283,3.817,52.559,0.196c9.609-2.192,19.316-5.628,26.852-12.193c3.599-3.359,7.1-7.536,7.569-12.619
		c-2.356-0.414-4.679-0.949-6.969-1.527c-2.345,6.435-7.918,10.972-13.96,13.808c-13.044,5.922-27.539,7.755-41.74,7.744
		c-12.314-0.524-25.085-1.822-36.025-7.951c-4.461-2.214-7.406-6.5-8.409-11.31c-3.087-0.524-6.217-0.545-9.282,0.022
		c-0.96,5.497-5.017,9.685-10.001,11.877c-12.39,5.966-26.361,7.1-39.907,7.373c-14.691-0.447-29.819-1.919-43.234-8.398
		c-5.802-2.77-11.277-6.958-13.59-13.175C685.355,1450.257,683.043,1450.791,680.709,1451.238z"/>
	<path class="st6" d="M693.088,1205.513c13.022-6.849,27.256-11.365,41.772-13.633c-4.733,2.476-8.998,5.77-13.862,8.016
		c-11.354,5.737-22.282,12.335-32.796,19.501c-11.997,8.136-21.966,18.847-30.768,30.277c-13.83,17.876-26.329,36.777-37.268,56.551
		c-8.213,15.378-15.902,31.193-20.548,48.065c-3.73,14.931-4.003,30.451-3.49,45.753c0.774,17.996,5.202,35.708,12.172,52.286
		c8.093,18.345,19.665,34.934,32.796,50.018c11.637,13.764,24.736,26.176,36.821,39.536c-17.876-8.322-33.407-20.864-48.731-33.102
		c-4.777-3.915-9.5-7.94-13.721-12.455c-4.046-4.232-6.119-9.838-9.62-14.451c-1.276-1.996-3.185-3.73-3.708-6.086
		c-0.425-4.232-3.316-7.482-5.29-11.048c-3.163-5.606-6.162-11.299-9.303-16.916c-0.611-1.276-1.821-1.996-2.934-2.705
		c-4.341-8.845-7.547-18.225-10.645-27.561c-3.774-10.863-4.973-22.457-4.875-33.898c-0.643-29.142,6.904-58.001,19.217-84.265
		c6.566-13.808,14.484-27.103,24.398-38.773c9.052-10.797,21.279-18.072,32.284-26.634
		C659.823,1222.625,676.095,1213.267,693.088,1205.513z"/>
	<path class="st23" d="M2066.132,1194.911c1.647-0.283,3.174,0.698,3.599,2.378
		C2068.052,1197.442,2066.558,1196.515,2066.132,1194.911z"/>
	<path class="st24" d="M426.879,1231.83l0.196,0.96c-0.044,0.763-0.131,2.312-0.175,3.086c28.292-2.323,57.402-1.331,84.439,8.093
		c10.056,3.817,20.504,8.573,27.201,17.363c4.079,5.126,4.973,12.652,1.701,18.432c-4.09,7.438-11.572,12.172-18.956,15.891
		c-9.205,4.264-18.901,7.58-28.902,9.369c-22.86,4.624-46.484,4.941-69.595,2.16c-13.197-1.963-26.361-4.952-38.588-10.394
		c-8.049-3.665-16-8.573-20.952-16.098c-3.763-5.715-3.239-13.579,0.862-18.978c5.628-7.471,14.015-12.27,22.555-15.705
		c12.368-5.41,25.772-7.656,39.013-9.805C426.029,1234.72,426.432,1233.27,426.879,1231.83z"/>
	<path class="st24" d="M1084.941,1234.295c10.023-1.865,20.232-1.865,30.386-2.378c13.055,0.186,26.143,0.753,38.991,3.316
		c12.215,2.487,24.551,5.595,35.49,11.779c5.497,2.923,10.612,6.784,14.342,11.834c3.348,4.592,4.69,10.983,2.203,16.294
		c-3.043,7.111-9.445,11.997-16.055,15.607c-7.853,4.504-16.469,7.471-25.216,9.663c-1.963,0.284-2.956,2.04-3.981,3.512
		c0.055-0.556,0.153-1.669,0.207-2.225c-13.731,2.53-27.637,4.406-41.63,4.352c-22.86,0.327-46.08-2.519-67.468-10.917
		c-8.442-3.556-16.905-8.169-22.566-15.564c-3.796-4.908-4.886-11.921-2.094-17.549c3.501-7.144,10.318-11.888,17.167-15.531
		C1057.14,1239.727,1071.144,1236.771,1084.941,1234.295z"/>
	<path class="st1" d="M751.384,1252.891c6.304-1.429,12.87-1.102,19.294-0.872c6.468,0.36,10.165,6.544,15.76,8.987
		c5.846,3.632,13.622,4.995,19.763,1.265c6.391-2.552,10.765-8.911,17.865-9.783c9.925-1.331,19.97,0.48,29.502,3.272
		c14.004,3.795,27.485,9.576,39.907,17.113c5.562,3.708,11.855,7.493,14.691,13.851c1.527,3.599-1.603,7.024-4.875,8.049
		c-14.593,4.646-30.211-1.669-44.793,3.087c-9.292,2.694-16.993,9.107-22.948,16.567c-10.994,14.244-16.273,31.716-22.217,48.447
		c-2.607,7.198-4.646,15.018-9.947,20.799c-3.348,3.676-9.369,2.618-12.913-0.185c-5.846-6.086-7.526-14.713-10.274-22.413
		c-6.13-18.629-11.572-38.577-25.325-53.246c-7.809-8.671-19.577-13.186-31.16-12.652c-7.286,0.709-14.68,1.189-21.955,0.229
		c-3.501-0.589-7.493-1.538-9.543-4.712c-1.494-2.945,0.022-6.326,1.985-8.627c4.297-5.235,9.958-9.129,15.716-12.586
		C722.808,1261.922,736.802,1256.217,751.384,1252.891 M793.712,1266.993c-0.436,9.063-0.098,18.149-0.196,27.234
		c0.196,10.23-1.014,20.81,2.508,30.658c3.348-3.425,3.228-8.725,3.795-13.186c0.185-14.888,0.087-29.786,0.076-44.673
		C797.824,1266.96,795.763,1266.949,793.712,1266.993z"/>
	<path class="st25" d="M793.712,1266.993c2.05-0.044,4.112-0.033,6.184,0.033c0.011,14.887,0.109,29.786-0.076,44.673
		c-0.567,4.461-0.447,9.761-3.795,13.186c-3.523-9.849-2.312-20.428-2.508-30.658
		C793.614,1285.142,793.276,1276.056,793.712,1266.993z"/>
	<path class="st26" d="M2127.765,1282.099c1.342,1.549,1.494,3.676,0.829,5.584
		C2127.166,1286.134,2126.969,1283.964,2127.765,1282.099z"/>
	<path class="st27" d="M2128.889,1289.417c0.807,3.719,1.243,7.536,1.156,11.376c-0.164,7.744,0.458,15.564-1.036,23.231
		C2128.714,1312.484,2128.987,1300.945,2128.889,1289.417z"/>
	<path class="st15" d="M221.999,1372.362c21.835-2.138,44.095-0.971,65.287,4.941c31.04,8.551,59.496,25.969,81.81,49.101
		c14.015,13.273,25.423,29.11,34.868,45.895c10.219,19.087,17.92,40.027,18.89,61.84c0.698,17.887-3.883,36.352-14.888,50.683
		c-11.561,16.087-29.862,26.296-48.916,30.779c-4.09,1.047-8.311,1.854-12.554,1.407c0.458-4.177,1.2-8.365,0.643-12.554
		c-3.108-0.371-6.228-0.534-9.347-0.327c-0.927,4.483-1.287,9.052-1.701,13.611c-12.161,1.494-24.453-0.175-36.624-0.829
		c-14.157-1.091-28.314-2.345-42.503-2.912c-6.773-0.36-13.644,0.72-20.352-0.633c0.229-4.548,0.578-9.074,0.589-13.611
		c-3.207-0.425-6.446-0.534-9.663-0.185c-1.32,4.864-0.818,9.947-1.538,14.909c-27.943,1.123-56.169,1.178-83.806-3.687
		c-7.046-1.341-14.168-2.672-20.853-5.312c-2.487-0.731-2.628-3.806-4.341-5.366c-3.283-0.076-6.729,1.309-9.87-0.131
		c-14.19-6.609-26.339-17.658-34.083-31.28c-9.5-17.832-12.368-38.522-11.517-58.503c0.96-23.177,9.772-45.557,23.078-64.382
		c6.369-9.783,14.92-17.8,23.198-25.903C139.25,1391.961,180.368,1376.223,221.999,1372.362 M134.069,1512.763
		c-4.984,4.319-8.725,10.089-11.692,15.967c2.094,2.498,4.963,4.079,7.94,5.322c4.025-5.148,8.093-10.35,11.256-16.076
		C139.152,1516.286,137.069,1512.85,134.069,1512.763 M319.318,1518.914c2.236,5.322,4.352,10.71,6.806,15.945
		c1.123,2.53,4.003,0.894,5.791,0.153c1.505-0.927,4.33-1.778,3.545-4.068c-1.756-5.65-4.504-10.939-6.904-16.327
		C325.055,1514.944,321.969,1516.689,319.318,1518.914 M230.113,1537.881c-0.796,6.566-0.905,13.208-1.091,19.817
		c3.392,0.567,6.849,0.644,10.274,0.349c0.175-6.729,1.003-13.524-0.142-20.199C236.144,1537.651,233.123,1537.641,230.113,1537.881
		 M117.404,1538.622c-3.85,4.821-5.431,10.917-7.231,16.698c-0.763,1.603-0.109,3.61,1.81,3.905
		c2.443,0.654,6.882,2.923,7.864-0.731c1.723-4.832,3.817-9.532,5.181-14.462C123.73,1540.945,120.087,1540.095,117.404,1538.622
		 M332.035,1547.369c0.796,3.926,2.749,7.493,4.068,11.267c0.862,1.919,1.331,4.21,2.923,5.737c2.923-0.153,5.671-1.287,8.453-2.116
		c0.164-5.05-2.541-9.478-4.188-14.069c-0.96-1.876-1.341-4.472-3.523-5.301C336.943,1543.639,333.497,1544.599,332.035,1547.369
		 M229.088,1568.419c-1.112,6.609-1.516,13.317-1.363,20.024c3.141-0.174,7.427,2.236,9.87-0.469
		c1.342-6.162,0.894-12.652,0.873-18.934C235.403,1568.255,232.229,1568.125,229.088,1568.419 M106.967,1569.433
		c-0.676,6.98-1.363,14.113-0.087,21.083c3.119,0.218,6.239-0.087,9.26-0.84c0.185-6.304,0.6-12.586,0.785-18.879
		C113.674,1569.946,110.359,1569.139,106.967,1569.433 M340.303,1573.938c-1.331,6.468-1.745,13.153-1.134,19.741
		c3.097,0.305,6.217,0.436,9.325,0.371c1.625-6.729,1.112-13.721,1.036-20.57C346.443,1573.338,343.356,1573.523,340.303,1573.938z"
		/>
	<path class="st4" d="M342.844,1380.836c4.613,3.032,6.795,8.376,10.372,12.412c2.432,3.359,6.326,6.086,6.849,10.481
		c-3.49-2.727-5.857-6.511-8.464-10.012C348.57,1389.496,345.2,1385.483,342.844,1380.836z"/>
	<path class="st15" d="M1334.964,1396.16c42.896-7.744,89.718-0.611,125.611,25.096c14.288,11.136,27.561,24.529,34.912,41.369
		c3.981,9.194,6.893,18.999,7.275,29.077c0.862,13.044,0.654,26.132,0.829,39.198c-0.044,14.909-1.189,30.528-8.518,43.844
		c-7.646,13.012-20.45,22.217-34.16,27.997c-24.791,10.787-51.774,14.92-78.375,18.509c-34.269,3.937-68.766,5.617-103.231,6.173
		c-4.144-0.36-4.385-5.311-5.715-8.289c-0.633-3.817-4.995-1.702-7.493-1.571c-0.011,3.196,0.72,6.315,1.581,9.38
		c-6.031,1.178-12.15-0.076-18.214,0.065c-10.732,0.055-21.41-1.069-32.098-1.756c-2.149-0.425-5.399-0.185-5.977-2.879
		c-1.734-4.505-3.905-8.987-7.656-12.161c-1.887,1.145-3.719,2.367-5.497,3.676c1.658,3.076,4.123,5.944,4.428,9.587
		c-21.911-2.312-43.616-7.297-64.098-15.477c-2.476-1.101-5.126-1.963-7.231-3.686c-1.963-4.832-2.16-10.285-4.744-14.866
		c-2.05-1.025-4.374,0.502-6.435,0.883c0.207,2.705,0.382,5.41,0.633,8.136c-15.149-8.158-26.896-22.544-31.815-39.046
		c-4.264-13.382-3.806-27.746-1.854-41.489c1.789-10.808,3.37-21.966,8.485-31.793c6.86-14.429,20.712-23.896,34.661-30.735
		c23.875-10.907,49.581-16.84,74.907-23.318c23.656-5.802,47.258-11.834,70.599-18.803
		C1295.504,1407.59,1314.568,1399.367,1334.964,1396.16 M1145.669,1496.032c1.571,1.658,2.977,4.264,5.53,4.406
		c3.719-1.854,5.388-6.108,6.217-9.925c0.556-1.538-1.527-2.454-2.683-2.018C1150.74,1489.51,1148.144,1492.989,1145.669,1496.032
		 M1138.252,1502.576c-3.272,2.465-6.566,5.268-8.594,8.856c-0.393,3.152,3.555,4.461,6.02,5.213
		c2.258-3.599,5.595-6.217,8.693-9.02C1144.164,1504.943,1141.361,1499.86,1138.252,1502.576 M1219.844,1518.947
		c1.505,1.81,3.076,3.577,4.734,5.29c3.654-3.119,8.071-5.682,10.656-9.816c-0.055-2.574-2.661-3.959-4.286-5.552
		C1226.552,1511.388,1223.084,1515.119,1219.844,1518.947 M1123.844,1521.913c-2.083,4.112-3.217,8.638-4.123,13.142
		c2.443,0.589,5.508,2.476,7.787,0.502c1.516-4.046,2.421-8.3,3.981-12.324C1129.211,1522.186,1126.048,1519.536,1123.844,1521.913
		 M1213.846,1525.458c-2.716,3.621-5.89,6.98-7.798,11.136c-1.134,3.577,3.643,4.123,5.988,5.104
		c2.596-3.894,5.279-7.744,7.776-11.703C1218.045,1528.185,1216.224,1526.385,1213.846,1525.458 M1118.762,1542.974
		c-1.461,5.203-2.519,10.798-1.287,16.164c2.378-0.055,4.766-0.164,7.155-0.338c0.273-4.537,0.993-9.085,0.6-13.633
		C1124.095,1542.81,1120.889,1543.421,1118.762,1542.974 M1199.787,1547.729c-1.843,3.512-4.003,7.209-4.428,11.19
		c1.287,1.887,4.45,3.032,6.653,2.094c2.574-3.894,4.221-8.3,5.89-12.619C1205.481,1547.26,1201.565,1544.185,1199.787,1547.729
		 M1294.588,1569.575c-1.047,2.748,2.029,4.864,4.057,6.14c4.297-1.93,8.147-5.137,10.961-8.922
		c-0.393-2.509-2.607-3.992-4.406-5.464C1301.72,1564.155,1297.849,1566.489,1294.588,1569.575 M1117.486,1566.881
		c-0.436,5.115-0.262,10.329,1.156,15.302c2.301-0.327,5.966,0.458,6.926-2.356c0.087-4.319-0.72-8.605-0.731-12.913
		C1122.383,1566.641,1119.918,1566.641,1117.486,1566.881 M1191.193,1567.285c-1.385,5.05-2.934,10.209-2.421,15.531
		c2.345,0.109,4.701,0.207,7.067,0.273c0.993-4.526,2.356-9.063,2.247-13.72C1196.319,1567.427,1193.669,1567.023,1191.193,1567.285
		 M1276.526,1586.546c1.614,1.625,2.988,4.134,5.53,4.308c3.926-2.618,7.002-6.304,10.154-9.772
		c-1.298-1.996-2.498-5.235-5.486-4.483C1282.71,1579.206,1279.624,1582.958,1276.526,1586.546 M1189.295,1592.108
		c0.185,4.744,1.418,9.609,3.948,13.677c2.738,1.342,5.028-1.32,6.882-2.956c-1.418-4.155-2.781-8.333-3.763-12.608
		C1193.996,1590.276,1190.757,1589.894,1189.295,1592.108 M1265.718,1609.275c2.116,0.087,4.265,0.36,6.391,0.011
		c2.389-3.523,3.752-7.667,4.799-11.746c-0.927-2.323-3.643-2.77-5.628-3.741C1267.757,1598.151,1265.87,1603.691,1265.718,1609.275
		z"/>
	<path class="st4" d="M584.611,1445.12c1.112,0.709,2.323,1.429,2.934,2.705c3.141,5.617,6.14,11.31,9.303,16.916
		c1.974,3.566,4.864,6.817,5.29,11.048C594.743,1466.606,589.355,1455.874,584.611,1445.12z"/>
	<path class="st28" d="M680.709,1451.238c2.334-0.447,4.646-0.981,6.958-1.549c2.312,6.217,7.787,10.405,13.59,13.175
		c13.415,6.479,28.543,7.951,43.234,8.398c13.546-0.273,27.517-1.407,39.907-7.373c4.984-2.192,9.042-6.38,10.001-11.877
		c3.065-0.567,6.195-0.545,9.282-0.022c1.003,4.81,3.948,9.096,8.409,11.31c10.939,6.13,23.711,7.427,36.025,7.951
		c14.2,0.011,28.695-1.822,41.74-7.744c6.042-2.836,11.615-7.373,13.96-13.808c2.29,0.578,4.613,1.112,6.969,1.527
		c-0.469,5.083-3.97,9.26-7.569,12.619c-7.536,6.566-17.243,10.001-26.852,12.193c-17.276,3.621-35.359,4.057-52.559-0.196
		c-9.391-2.061-18.814-6.184-24.769-14.037c-6.119,7.722-15.629,11.572-24.954,13.775c-13.579,3.163-27.735,4.243-41.598,2.607
		c-11.986-0.622-23.94-3.501-34.836-8.551C690.252,1465.777,682.007,1460.084,680.709,1451.238z"/>
	<path class="st1" d="M1145.669,1496.032c2.476-3.043,5.072-6.522,9.063-7.536c1.156-0.436,3.239,0.48,2.683,2.018
		c-0.829,3.817-2.498,8.071-6.217,9.925C1148.646,1500.296,1147.239,1497.69,1145.669,1496.032z"/>
	<path class="st16" d="M50.83,1503.481c1.156-2.356,1.81-4.864,2.225-7.427c-2.552,13.688-2.356,27.746-0.109,41.456
		c-0.349-2.629-0.927-5.224-2.116-7.591V1503.481z"/>
	<path class="st1" d="M1138.252,1502.576c3.108-2.716,5.911,2.367,6.119,5.05c-3.098,2.803-6.435,5.421-8.693,9.02
		c-2.465-0.753-6.413-2.061-6.02-5.213C1131.686,1507.844,1134.98,1505.041,1138.252,1502.576z"/>
	<path class="st1" d="M1219.844,1518.947c3.239-3.828,6.708-7.558,11.103-10.078c1.625,1.592,4.232,2.978,4.286,5.552
		c-2.585,4.134-7.002,6.697-10.656,9.816C1222.92,1522.524,1221.35,1520.757,1219.844,1518.947z"/>
	<path class="st1" d="M134.069,1512.763c2.999,0.087,5.082,3.523,7.504,5.213c-3.163,5.726-7.231,10.928-11.256,16.076
		c-2.977-1.243-5.846-2.825-7.94-5.322C125.344,1522.851,129.085,1517.082,134.069,1512.763z"/>
	<path class="st1" d="M319.318,1518.914c2.65-2.225,5.737-3.97,9.238-4.297c2.399,5.388,5.148,10.678,6.904,16.327
		c0.785,2.29-2.04,3.141-3.545,4.068c-1.789,0.742-4.668,2.378-5.791-0.153C323.67,1529.624,321.554,1524.236,319.318,1518.914z"/>
	<path class="st29" d="M1123.844,1521.913c2.203-2.378,5.366,0.273,7.646,1.32c-1.56,4.025-2.465,8.278-3.981,12.324
		c-2.279,1.974-5.344,0.087-7.787-0.502C1120.627,1530.551,1121.761,1526.025,1123.844,1521.913z"/>
	<path class="st30" d="M1540.597,1524.389c0.818-1.32,1.963-1.68,3.425-1.091
		C1543.149,1524.574,1542.015,1524.934,1540.597,1524.389z"/>
	<path class="st1" d="M1213.846,1525.458c2.378,0.927,4.199,2.727,5.966,4.537c-2.498,3.959-5.181,7.809-7.776,11.703
		c-2.345-0.982-7.122-1.527-5.988-5.104C1207.956,1532.438,1211.13,1529.079,1213.846,1525.458z"/>
	<path class="st1" d="M230.113,1537.881c3.01-0.24,6.031-0.229,9.042-0.033c1.145,6.675,0.316,13.47,0.142,20.199
		c-3.425,0.294-6.882,0.218-10.274-0.349C229.208,1551.089,229.317,1544.446,230.113,1537.881z"/>
	<path class="st1" d="M117.404,1538.622c2.683,1.473,6.326,2.323,7.624,5.41c-1.363,4.93-3.457,9.63-5.181,14.462
		c-0.982,3.654-5.421,1.385-7.864,0.731c-1.92-0.295-2.574-2.301-1.81-3.905C111.973,1549.54,113.554,1543.443,117.404,1538.622z"/>
	<path class="st1" d="M332.035,1547.369c1.462-2.77,4.908-3.73,7.733-4.483c2.181,0.829,2.563,3.425,3.523,5.301
		c1.647,4.592,4.352,9.02,4.188,14.069c-2.781,0.829-5.53,1.963-8.453,2.116c-1.592-1.527-2.061-3.817-2.923-5.737
		C334.784,1554.862,332.832,1551.296,332.035,1547.369z"/>
	<path class="st31" d="M1118.762,1542.974c2.127,0.447,5.333-0.163,6.468,2.192c0.393,4.548-0.327,9.096-0.6,13.633
		c-2.389,0.175-4.777,0.284-7.155,0.338C1116.243,1553.771,1117.301,1548.176,1118.762,1542.974z"/>
	<path class="st1" d="M1199.787,1547.729c1.778-3.545,5.693-0.469,8.115,0.665c-1.669,4.319-3.316,8.725-5.89,12.619
		c-2.203,0.938-5.366-0.207-6.653-2.094C1195.785,1554.939,1197.944,1551.241,1199.787,1547.729z"/>
	<path class="st32" d="M431.798,1552.899c-0.763-1.931-0.589-4.057,0.622-5.715C433.271,1549.06,433.172,1551.263,431.798,1552.899z
		"/>
	<path class="st33" d="M1989.099,1555.048c-0.534-2.443,1.941-4.199,4.166-3.327
		C1992.163,1553.161,1990.746,1554.306,1989.099,1555.048z"/>
	<path class="st1" d="M1294.588,1569.575c3.261-3.087,7.133-5.421,10.612-8.245c1.8,1.472,4.014,2.956,4.406,5.464
		c-2.814,3.785-6.664,6.991-10.961,8.922C1296.616,1574.44,1293.541,1572.324,1294.588,1569.575z"/>
	<path class="st29" d="M1117.486,1566.881c2.432-0.24,4.897-0.24,7.351,0.033c0.011,4.308,0.818,8.594,0.731,12.913
		c-0.96,2.814-4.624,2.029-6.926,2.356C1117.224,1577.21,1117.05,1571.997,1117.486,1566.881z"/>
	<path class="st29" d="M1191.193,1567.285c2.476-0.262,5.126,0.142,6.893,2.083c0.109,4.657-1.254,9.194-2.247,13.72
		c-2.367-0.065-4.723-0.164-7.067-0.273C1188.259,1577.493,1189.808,1572.335,1191.193,1567.285z"/>
	<path class="st1" d="M229.088,1568.419c3.141-0.295,6.315-0.164,9.38,0.622c0.022,6.282,0.469,12.772-0.873,18.934
		c-2.443,2.705-6.729,0.295-9.87,0.469C227.572,1581.736,227.975,1575.028,229.088,1568.419z"/>
	<path class="st1" d="M106.967,1569.433c3.392-0.294,6.708,0.513,9.958,1.363c-0.185,6.293-0.6,12.575-0.785,18.879
		c-3.021,0.752-6.14,1.058-9.26,0.84C105.603,1583.547,106.29,1576.414,106.967,1569.433z"/>
	<path class="st1" d="M340.303,1573.938c3.054-0.415,6.14-0.6,9.227-0.458c0.076,6.849,0.589,13.84-1.036,20.57
		c-3.108,0.065-6.228-0.066-9.325-0.371C338.558,1587.091,338.972,1580.406,340.303,1573.938z"/>
	<path class="st1" d="M1276.526,1586.546c3.097-3.588,6.184-7.34,10.198-9.947c2.988-0.753,4.188,2.487,5.486,4.483
		c-3.152,3.468-6.228,7.155-10.154,9.772C1279.515,1590.68,1278.14,1588.171,1276.526,1586.546z"/>
	<path class="st29" d="M1189.295,1592.108c1.462-2.214,4.701-1.832,7.068-1.887c0.981,4.275,2.345,8.453,3.763,12.608
		c-1.854,1.636-4.145,4.297-6.882,2.956C1190.713,1601.717,1189.48,1596.853,1189.295,1592.108z"/>
	<path class="st1" d="M1265.718,1609.275c0.153-5.584,2.04-11.125,5.562-15.476c1.985,0.971,4.701,1.418,5.628,3.741
		c-1.047,4.079-2.41,8.224-4.799,11.746C1269.982,1609.635,1267.834,1609.362,1265.718,1609.275z"/>
	<path class="st34" d="M1841.685,1612.94c8.9-0.24,17.669-2.05,26.579-2.138c-18.727,4.003-38.031,3.447-57.063,3.272
		c-7.755-0.763-15.695-0.044-23.242-2.149c8.115-0.207,16.164,1.189,24.289,1.156
		C1822.053,1613.06,1831.869,1613.256,1841.685,1612.94z"/>
	<path class="st35" d="M140.09,1620.455c1.462-0.633,2.661-0.305,3.588,0.992C142.239,1621.981,141.039,1621.654,140.09,1620.455z"
		/>
	<path class="st36" d="M146.71,1621.6c1.93-0.687,4.068-0.425,5.628,0.982C150.408,1623.247,148.237,1623.018,146.71,1621.6z"/>
	<path class="st37" d="M670.151,1621.643c1.418-0.676,2.585-0.36,3.501,0.927C672.234,1623.159,671.067,1622.854,670.151,1621.643z"
		/>
	<path class="st38" d="M1432.622,1622.549c0.883-1.298,2.05-1.625,3.501-0.982
		C1435.196,1622.799,1434.029,1623.116,1432.622,1622.549z"/>
	<path class="st39" d="M155.185,1622.887c4.483-0.022,8.954,0.316,13.415,0.774c6.282,0.633,12.673-0.327,18.868,1.222
		c-4.45,0.207-8.911,0.305-13.361-0.044C167.793,1624.294,161.358,1624.577,155.185,1622.887z"/>
	<path class="st40" d="M708.51,1630.052c1.603-0.436,3.239,0.054,4.45,1.2C711.433,1631.721,709.099,1631.939,708.51,1630.052z"/>
	<path class="st41" d="M865.38,1631.274c0.938-1.298,2.149-1.614,3.632-0.949C868.019,1631.492,866.808,1631.808,865.38,1631.274z"
		/>
	<path class="st42" d="M1180.581,1630.358c1.614-0.709,3.457-0.447,4.734,0.851
		C1183.678,1631.885,1181.813,1631.623,1180.581,1630.358z"/>
	<path class="st43" d="M715.948,1631.448c1.429-0.654,2.628-0.349,3.577,0.927C718.086,1632.953,716.886,1632.637,715.948,1631.448z
		"/>
	<path class="st44" d="M857.887,1632.419c1.527-1.418,3.654-1.701,5.595-1.025C861.955,1632.823,859.806,1633.084,857.887,1632.419z
		"/>
	<path class="st45" d="M1187.157,1631.427c1.952-0.665,4.112-0.425,5.726,0.96
		C1190.909,1633.052,1188.728,1632.833,1187.157,1631.427z"/>
	<path class="st46" d="M1372.69,1632.256c2.356-1.276,5.061-1.462,7.646-0.764
		C1378.045,1633.041,1375.231,1633.139,1372.69,1632.256z"/>
	<path class="st47" d="M1195.894,1632.626c1.92-0.753,4.101-0.513,5.66,0.949
		C1199.602,1634.197,1197.464,1633.957,1195.894,1632.626z"/>
	<path class="st48" d="M1333.459,1634.906c11.746-0.273,23.427-2.04,35.185-2.149c-11.19,2.432-22.762,1.996-34.127,3.043
		c-7.951,0.84-15.978,0.262-23.918,1.134c-13.088,1.134-26.22,0.284-39.318,0.523c-10.994-0.305-22.031,0.72-32.971-0.633
		c16.807,0.229,33.625,0.349,50.432,0.262c6.926-0.218,13.797-1.363,20.744-1.069
		C1317.502,1636.346,1325.453,1634.982,1333.459,1634.906z"/>
	<path class="st16" d="M769.969,1637.709c13.535,0.709,27.114,0.916,40.649-0.131l0.72,1.298h-42.448L769.969,1637.709z"/>
</g>
</svg>
